<svg id="Layer_1" data-name="Layer 1" xmlns="http://www.w3.org/2000/svg" viewBox="0 0 64 64"><defs><style>.cls-1{fill:#00456b;}.cls-1,.cls-2,.cls-3{fill-rule:evenodd;}.cls-2,.cls-3{fill:none;stroke:#00456b;stroke-miterlimit:10;}.cls-2{stroke-width:2px;}.cls-3{stroke-width:1.36px;}</style></defs><title>icon-roadtrips-atyourservice</title><path class="cls-1" d="M12.58,35.49c-1.83,0-3.69-2.51-3.69-6.64v-4a1.66,1.66,0,0,1,1.65-1.65H13a.94.94,0,1,0,0-1.88H10.55A3.54,3.54,0,0,0,7,24.85v.49a4.26,4.26,0,0,1-.13-1V21.07a3,3,0,0,1,3-3,.94.94,0,0,0,.94-.94,1,1,0,0,1,1-1H13a.94.94,0,1,0,0-1.88H11.78a2.89,2.89,0,0,0-2.75,2,4.84,4.84,0,0,0-4,4.76v3.24a6.09,6.09,0,0,0,2,4.53H7a9.68,9.68,0,0,0,2.71,6.78c0,1.19-.1,2.27-.69,2.7l-5,.75-.11,0A5.64,5.64,0,0,0,0,44.5V47a2.33,2.33,0,0,0,2.41,2.23H5.95a.94.94,0,0,0,0-1.88H2.41c-.31,0-.54-.19-.54-.35V44.5a3.73,3.73,0,0,1,2.51-3.57l5.11-.77H9.6l.1,0h0l.08,0h.06a3.67,3.67,0,0,0,1.67-3c1.25.74-1.52,0,0,0"/><path class="cls-1" d="M52.7,38.14c1.52,0-1.47-.34-.23-1.08a3.67,3.67,0,0,0,1.67,3h.06l.08,0h0l.1,0h.09l5.11.77a3.73,3.73,0,0,1,2.51,3.57V47c0,.17-.23.35-.53.35H58.05a.94.94,0,0,0,0,1.88h3.54A2.33,2.33,0,0,0,64,47V44.5a5.64,5.64,0,0,0-3.94-5.4h0l-.11,0-5-.75c-.59-.44-.68-1.51-.69-2.7A9.68,9.68,0,0,0,57,28.85h0a6.1,6.1,0,0,0,2-4.53V19.25A5,5,0,0,0,54,14.3H51a.94.94,0,1,0,0,1.88h3a3.07,3.07,0,0,1,3.07,3.07v5.07a4.28,4.28,0,0,1-.12,1v-.49a3.54,3.54,0,0,0-3.53-3.53H51a.94.94,0,1,0,0,1.88h2.42a1.66,1.66,0,0,1,1.65,1.65v4c0,4.13-2.84,6.56-3.54,6.56"/><polyline class="cls-2" points="18.96 26.86 18.96 31.53 30.59 34.11"/><polyline class="cls-3" points="6.81 28.25 6.81 32 11.82 33.54"/><path class="cls-1" d="M50.71,43.76l-.11,0-7.82-1.17c-.9-.58-1.22-1.79-1.33-3.22a11,11,0,0,0,5.21,1.27,12.79,12.79,0,0,0,8.56-3.22l1.71-1.71H54.51c-1.85,0-3.74-2-5-5.41s-1.06-9.78-1.06-9.85v-6a9,9,0,0,0-9-9h-13a4,4,0,0,0-3.84,3.06,7,7,0,0,0-6.11,6.9v5s0,.1,0,.14h0c0,2.46-.15,7.26-1.1,9.71-1.31,3.39-3.2,5.41-5,5.41H7.92l1.71,1.71a12.79,12.79,0,0,0,8.56,3.22,11,11,0,0,0,5.24-1.29C23.32,40.77,23,42,22.1,42.56l-7.82,1.17-.11,0a7.56,7.56,0,0,0-4.23,3.08,8.54,8.54,0,0,0-1.48,4.76v3.88a3.09,3.09,0,0,0,3.22,2.93H53.2a3.09,3.09,0,0,0,3.22-2.93V51.61a8.54,8.54,0,0,0-1.48-4.76A7.56,7.56,0,0,0,50.71,43.76Zm-9.32.11c-.75,3.84-4.5,6.67-8.95,6.67s-8.19-2.83-8.95-6.67c1.39-1.15,1.75-3,1.84-4.76a12.17,12.17,0,0,0,14.22,0C39.63,40.82,40,42.72,41.38,43.87ZM12.58,37.12c1.85-.95,3.48-3.07,4.67-6.13s1.16-8.2,1.1-10.43h0s0-.09,0-.14v-5a5.08,5.08,0,0,1,5.07-5.07.94.94,0,0,0,.94-.94,2.07,2.07,0,0,1,2.07-2.07h13a7.08,7.08,0,0,1,7.08,7.08v5.26c-.05,1.13-.28,7.82,1.07,11.33,1.18,3.06,2.82,5.18,4.67,6.13-2.66,1.52-7,2.34-10.56,0a14.47,14.47,0,0,0,3.7-9.73v-.32h0V24.25h0V20.42a.94.94,0,0,0-1.88,0v7A12.61,12.61,0,0,1,40.25,36h0l-.89.89A10.34,10.34,0,0,1,25,36.37L24.61,36h0a12.62,12.62,0,0,1-3.25-8.55v-.66a1,1,0,0,0,0-.17V21.42a3.07,3.07,0,0,1,3.07-3.07h17a.94.94,0,1,0,0-1.88h-17a4.94,4.94,0,0,0-4.88,4.33v7.93a14.4,14.4,0,0,0,3.62,8.43C19.62,39.46,15.24,38.65,12.58,37.12Zm42,18.37a1.24,1.24,0,0,1-1.34,1.06H11.67a1.24,1.24,0,0,1-1.34-1.06V51.61a6.29,6.29,0,0,1,4.29-6l7.09-1.06c1.05,4.56,5.49,7.9,10.73,7.9s9.68-3.33,10.73-7.9l7.09,1.06a6.29,6.29,0,0,1,4.29,6Z"/></svg>