<svg id="Layer_1" data-name="Layer 1" xmlns="http://www.w3.org/2000/svg" viewBox="0 0 64 64"><defs><style>.cls-1{fill:#00456b;}</style></defs><title>icon-gift</title><path class="cls-1" d="M62.36,16.26H37.61c6.93-1.49,13.5-3.52,15-7.15A5.72,5.72,0,0,0,52,3.64,7.7,7.7,0,0,0,45.66.48a8.82,8.82,0,0,0-5.55,2C36.94,5,33.77,10.66,32.19,13.73,30.74,10.64,27.79,5,24.62,2.47A10.18,10.18,0,0,0,18.28.27a7.58,7.58,0,0,0-6.54,3.12,5.81,5.81,0,0,0,0,5.8c1.75,3.5,8.21,5.54,15.07,7.07H1.95V32.44H5.18V63.73H59.12V32.44h3.24ZM41.45,4.16a6.69,6.69,0,0,1,4.2-1.52,5.53,5.53,0,0,1,4.59,2.21,3.56,3.56,0,0,1,.32,3.46c-1.37,3.41-11.18,5.44-16.48,6.48C35.58,11.87,38.61,6.44,41.45,4.16ZM13.7,8.23a3.69,3.69,0,0,1-.13-3.7,5.52,5.52,0,0,1,4.71-2.1,8,8,0,0,1,5,1.73c2.85,2.28,5.67,7.74,7,10.64C25,13.73,15.37,11.58,13.7,8.23ZM4.1,30.29V18.42H24.6V30.29H4.1ZM7.34,61.57V32.44H24.6V61.57Zm19.42,0V18.42H37.54V61.57Zm30.21,0H39.7V32.44H57ZM60.2,30.29H39.7V18.42H60.2Z"/></svg>