<svg id="Layer_1" data-name="Layer 1" xmlns="http://www.w3.org/2000/svg" viewBox="0 0 64 64"><defs><style>.cls-1{fill:#00456b;}</style></defs><title>icon-experience</title><path class="cls-1" d="M38.82,36.27a4.92,4.92,0,0,1,4.92,4.92V48a3.13,3.13,0,0,1-.41.16,40,40,0,0,1-11.5,1.44,43,43,0,0,1-11.21-1.3,2.39,2.39,0,0,1-.34-.12l.15-7a4.92,4.92,0,0,1,4.92-4.92H38.82m0-2.1H25.34a7,7,0,0,0-7,7l-.16,7.28c0,1,.88,1.58,1.87,1.87a45,45,0,0,0,11.79,1.39A42,42,0,0,0,44,50.18c1-.32,1.87-.84,1.87-1.87V41.19a7,7,0,0,0-7-7Z"/><path class="cls-1" d="M63,31.13l-1.41.16-.8.49,0-5.3c1.7-1.14,2.55-2.4,2.55-3.79a3.52,3.52,0,0,0-.69-2.07l0,0-.07-.1A7.64,7.64,0,0,0,61,19.06h0a19.17,19.17,0,0,0-4.58-2.3,49,49,0,0,0-6.71-1.85v0l-.58-.12v0q-2.22-.45-4.58-.77-3-.41-6.16-.61c-2.12-.13-4.31-.2-6.56-.2C14.45,13.22.33,17.45.33,22.66a3.53,3.53,0,0,1-.08.66,5.26,5.26,0,0,0,2.59,3.37v4.86l-.38-.25-1.4-.16a8.59,8.59,0,0,0,1.78,1.72V37.5l-.38-.25-1.4-.16a8.59,8.59,0,0,0,1.78,1.72V43.6l-.38-.25-1.4-.16a11,11,0,0,0,3.56,2.87,20.38,20.38,0,0,0,2.59,1.33,27.21,27.21,0,0,0,9.14,2V47.73A40.09,40.09,0,0,1,11.72,47V42.71a33.87,33.87,0,0,0,4.63.56V41.64A46.27,46.27,0,0,1,11.72,41V36.75a34.18,34.18,0,0,0,4.63.56V35.69a43,43,0,0,1-4.63-.7V30c2.62.59,5.34,1.07,8.12,1.43,2,.26,4,.46,6.09.6s4,.2,6,.21S36,32.16,38,32c2.22-.14,4.41-.35,6.57-.66A71.72,71.72,0,0,0,51.95,30l0,5.13c-1.29.25-2.72.45-4.25.59l0,1.62a38.49,38.49,0,0,0,4.25-.49l0,4.23c-1.29.25-2.72.45-4.25.59l0,1.62a41.82,41.82,0,0,0,4.25-.49l0,4.36a38.21,38.21,0,0,1-4.25.59l0,1.63a27.55,27.55,0,0,0,8.76-1.83c3-1.21,4.51-2,6.54-4.35l-1.41.16-.8.49,0-4.72a9.47,9.47,0,0,0,2.17-2l-1.41.16-.8.49,0-4.57A9.46,9.46,0,0,0,63,31.13ZM9.6,46.52q-1.22-.36-2.38-.81c-.82-.32-1.61-.66-2.38-1v-4.5a16.94,16.94,0,0,0,2.38,1.21,20.44,20.44,0,0,0,2.38.81Zm0-6.06q-1.17-.34-2.38-.81T4.83,38.58V34.21a17.16,17.16,0,0,0,2.38,1.21,20.89,20.89,0,0,0,2.38.81Zm0-6c-.81-.24-1.61-.51-2.38-.8s-1.61-.66-2.38-1V27.77a24.45,24.45,0,0,0,2.38,1q1.1.38,2.38.72ZM58.81,44.88q-1.18.57-2.38,1c-.79.29-1.58.54-2.38.76l0-4.36q1.26-.35,2.38-.78a19.75,19.75,0,0,0,2.38-1.1Zm0-6.1q-1.18.57-2.38,1T54,40.56l0-4.23q1.26-.35,2.38-.78a19.4,19.4,0,0,0,2.38-1.1Zm0-6q-1.18.57-2.38,1T54,34.61l0-5.21q1.27-.37,2.38-.77a25.4,25.4,0,0,0,2.38-1Zm-2.35-7.08A38.29,38.29,0,0,1,47.87,28q-1.64.27-3.28.49-3.29.44-6.57.65-3,.2-6.08.21t-6-.17q-3-.18-6.09-.56-2-.25-4-.58a37.37,37.37,0,0,1-8.59-2.24,9.54,9.54,0,0,1-2.59-1.57A3.25,3.25,0,0,1,3.4,21.81,2.86,2.86,0,0,1,4.62,19.6a9.55,9.55,0,0,1,2.59-1.41,26.26,26.26,0,0,1,3.64-1.07l6.59,9.46.78-.16-5-9.68a57.88,57.88,0,0,1,6.58-1.14q1.81-.2,3.79-.35l2.3,9.19.25,1,1-.07-1-8.39-.28-1.85.28,0c2.09-.13,3.77-.19,5.73-.19s4,.08,6.08.23l.45.05-.45,3-1.69,7,1,0L38,23.14l2.43-7.87c1.45.12,2.83.26,4.14.41a62.25,62.25,0,0,1,6.58,1.15l-5,9.4.77.13,6.39-9.15a24.48,24.48,0,0,1,3.15,1q3.81,1.48,3.81,3.64T56.46,25.75Z"/></svg>