<svg id="Layer_1" data-name="Layer 1" xmlns="http://www.w3.org/2000/svg" viewBox="0 0 64 64"><defs><style>.cls-1,.cls-2{fill:#00456b;}.cls-2{fill-rule:evenodd;}</style></defs><title>icon-hotels</title><path class="cls-1" d="M61.34,42l-1.39-4.18a4.11,4.11,0,0,0-.69-1.24V25.15a3.55,3.55,0,0,0-1.71-2.85,52.75,52.75,0,0,0-51.11,0,3.55,3.55,0,0,0-1.7,2.85V36.6a4.11,4.11,0,0,0-.69,1.24L2.66,42A3.55,3.55,0,0,0,0,45.45v16a3.3,3.3,0,0,0,3.56,3H5.93A4.38,4.38,0,0,0,10,61.22l0-.15a2,2,0,0,1,1.8-1.4h40.3a2,2,0,0,1,1.8,1.41l0,.14a4.38,4.38,0,0,0,4.09,3.2h2.37a3.3,3.3,0,0,0,3.56-3v-16A3.55,3.55,0,0,0,61.34,42Zm-53-4.87H55.7a2.35,2.35,0,0,1,2,1.44l1.1,3.3H5.2l1.1-3.3A2.35,2.35,0,0,1,8.3,37.15Zm20.15-2.37H14.22V31.23A1.19,1.19,0,0,1,15.41,30H27.26a1.19,1.19,0,0,1,1.19,1.19Zm21.33,0H35.56V31.23A1.19,1.19,0,0,1,36.74,30H48.59a1.19,1.19,0,0,1,1.19,1.19ZM7.61,24.37a50.36,50.36,0,0,1,48.78,0,1.23,1.23,0,0,1,.5.79V35a4,4,0,0,0-1.19-.19H52.15V31.23a3.56,3.56,0,0,0-3.56-3.56H36.74a3.56,3.56,0,0,0-3.56,3.56v3.56H30.81V31.23a3.56,3.56,0,0,0-3.56-3.56H15.41a3.56,3.56,0,0,0-3.56,3.56v3.56H8.3A4,4,0,0,0,7.11,35V25.16A1.23,1.23,0,0,1,7.61,24.37Zm54,37.08c0,.2-.46.59-1.19.59H58.07a2,2,0,0,1-1.8-1.41l0-.14a4.38,4.38,0,0,0-4.09-3.2H11.85a4.38,4.38,0,0,0-4.09,3.19l0,.15A2,2,0,0,1,5.93,62H3.56c-.72,0-1.19-.39-1.19-.59v-16a1.19,1.19,0,0,1,1.19-1.19H60.44a1.19,1.19,0,0,1,1.19,1.19Z"/><polygon class="cls-2" points="11.19 9.14 12.51 11.77 15.46 12.19 13.32 14.24 13.83 17.13 11.19 15.76 8.55 17.13 9.05 14.24 6.92 12.19 9.87 11.77 11.19 9.14"/><polygon class="cls-2" points="21.67 4.77 22.99 7.4 25.94 7.82 23.8 9.87 24.31 12.76 21.67 11.39 19.03 12.76 19.53 9.87 17.4 7.82 20.35 7.4 21.67 4.77"/><polygon class="cls-2" points="32.15 2.9 33.47 5.53 36.42 5.95 34.29 8 34.79 10.89 32.15 9.52 29.51 10.89 30.02 8 27.88 5.95 30.83 5.53 32.15 2.9"/><polygon class="cls-2" points="42.63 4.77 43.95 7.4 46.9 7.82 44.77 9.87 45.27 12.76 42.63 11.39 39.99 12.76 40.49 9.87 38.36 7.82 41.31 7.4 42.63 4.77"/><polygon class="cls-2" points="53.11 9.14 54.43 11.77 57.38 12.19 55.25 14.24 55.75 17.13 53.11 15.76 50.47 17.13 50.98 14.24 48.84 12.19 51.79 11.77 53.11 9.14"/></svg>