<svg id="Layer_1" data-name="Layer 1" xmlns="http://www.w3.org/2000/svg" viewBox="0 0 64 64"><defs><style>.cls-1{fill:#00456b;}.cls-2,.cls-3{fill:none;stroke:#00456b;stroke-linecap:round;stroke-miterlimit:10;stroke-width:2.1px;}.cls-3{stroke-dasharray:1.05 3.16;}</style></defs><title>icon-tickets</title><path class="cls-1" d="M16.37,6.11V16.92s0,.08,0,.12V58.55a5,5,0,0,0,5,5H42.59a5,5,0,0,0,5-5V17s0-.08,0-.12V6.11a5.06,5.06,0,0,0-5.05-5.05H21.42A5.06,5.06,0,0,0,16.37,6.11ZM42.59,3.16a3,3,0,0,1,2.95,2.95V16.92a3.07,3.07,0,0,1-2.73,3l0,2a3,3,0,0,1,2.72,3V58.35a3,3,0,0,1-3,3H21.42a3,3,0,0,1-3-3V24.92a3,3,0,0,1,2.9-3h.06V19.9a3,3,0,0,1-2.95-3V6.11a3,3,0,0,1,2.95-2.95Z"/><line class="cls-2" x1="21.15" y1="20.93" x2="21.65" y2="20.93"/><line class="cls-3" x1="24.81" y1="20.93" x2="44.31" y2="20.93"/><line class="cls-2" x1="45.89" y1="20.93" x2="46.39" y2="20.93"/></svg>