<svg id="Layer_1" data-name="Layer 1" xmlns="http://www.w3.org/2000/svg" viewBox="0 0 64 64"><defs><style>.cls-1{fill:#00456a;}.cls-2{fill:none;stroke:#00456a;stroke-miterlimit:10;stroke-width:1.3px;}</style></defs><title>icon-vip-lanyard</title><path class="cls-1" d="M46.81,44.45V59.74a3.52,3.52,0,0,1-3.52,3.52H18.71a3.53,3.53,0,0,1-3.53-3.53v-40a3.52,3.52,0,0,1,3.52-3.52H24a.89.89,0,0,1,.89.71.85.85,0,0,1-.84,1H18.71a1.81,1.81,0,0,0-1.81,1.81v40a1.82,1.82,0,0,0,1.81,1.81H43.29a1.81,1.81,0,0,0,1.81-1.81V45.08a.26.26,0,0,1,0,0V19.76a1.81,1.81,0,0,0-1.81-1.81h-5.7a.9.9,0,0,1-.91-.73.85.85,0,0,1,.85-1h5.77a3.52,3.52,0,0,1,3.52,3.52V44.41A.26.26,0,0,1,46.81,44.45Z"/><path class="cls-1" d="M40.34,50a.85.85,0,0,1-.85.85h-17a.85.85,0,0,1,0-1.71h17A.85.85,0,0,1,40.34,50Z"/><path class="cls-1" d="M40.34,54a.85.85,0,0,1-.85.85h-17a.85.85,0,0,1,0-1.71h17A.85.85,0,0,1,40.34,54Z"/><path class="cls-1" d="M40.34,58a.85.85,0,0,1-.85.85h-17a.85.85,0,0,1,0-1.71h17A.85.85,0,0,1,40.34,58Z"/><path class="cls-1" d="M23.68,42.33l-3.27-9.74,2.34-.25,2.11,7.57,2-7.56,2.21.24-3.24,9.74Z"/><path class="cls-1" d="M30.16,42.33V32.46h2.16v9.87Z"/><path class="cls-1" d="M34,42.33V32.69a15.22,15.22,0,0,1,3.17-.38c2.44,0,4.3.86,4.3,3.57,0,2.4-1.65,3.37-4,3.37a10.71,10.71,0,0,1-1.33-.1v3.19Zm3.27-4.76c1.18,0,2-.34,2-1.66s-.87-1.71-2-1.71a5.2,5.2,0,0,0-1.16.14V37.5A10.7,10.7,0,0,0,37.28,37.57Z"/><polygon class="cls-1" points="35.65 19.96 35.65 21.26 37.11 21.26 37.11 24.68 24.89 24.68 24.89 21.26 26.45 21.26 26.45 19.96 23.59 19.96 23.59 25.98 38.41 25.98 38.41 19.96 35.65 19.96"/><polygon class="cls-2" points="19.47 1.68 28.79 21.2 33.27 21.2 42.53 1.68 36.75 1.68 31.1 15.01 25.13 1.68 19.47 1.68"/></svg>