<svg id="Layer_1" data-name="Layer 1" xmlns="http://www.w3.org/2000/svg" viewBox="0 0 64 64"><defs><style>.cls-1{fill:#00456b;}</style></defs><title>icon-documents</title><path class="cls-1" d="M28,53.88H6.68A3.28,3.28,0,0,1,3.4,50.61V13.7a3.28,3.28,0,0,1,3.28-3.28H28a3.28,3.28,0,0,1,3.28,3.28V50.61A3.28,3.28,0,0,1,28,53.88ZM6.68,13A.68.68,0,0,0,6,13.7V50.61a.68.68,0,0,0,.67.67H28a.68.68,0,0,0,.67-.67V13.7A.68.68,0,0,0,28,13Z"/><path class="cls-1" d="M57.22,53.88H35.95a3.28,3.28,0,0,1-3.28-3.28V13.7a3.28,3.28,0,0,1,3.28-3.28H57.22A3.28,3.28,0,0,1,60.5,13.7V50.61A3.28,3.28,0,0,1,57.22,53.88ZM35.95,13a.68.68,0,0,0-.67.67V50.61a.68.68,0,0,0,.67.67H57.22a.68.68,0,0,0,.67-.67V13.7a.68.68,0,0,0-.67-.67Z"/><path class="cls-1" d="M36.49,19.75h-9a1.37,1.37,0,1,1,0-2.73h9a1.37,1.37,0,1,1,0,2.73Z"/><path class="cls-1" d="M36.49,25.26h-9a1.37,1.37,0,0,1,0-2.73h9a1.37,1.37,0,0,1,0,2.73Z"/><path class="cls-1" d="M36.49,30.76h-9a1.37,1.37,0,1,1,0-2.73h9a1.37,1.37,0,1,1,0,2.73Z"/><path class="cls-1" d="M36.49,36.27h-9a1.37,1.37,0,0,1,0-2.73h9a1.37,1.37,0,0,1,0,2.73Z"/><path class="cls-1" d="M36.49,41.78h-9a1.37,1.37,0,1,1,0-2.73h9a1.37,1.37,0,1,1,0,2.73Z"/><path class="cls-1" d="M36.49,47.29h-9a1.37,1.37,0,0,1,0-2.73h9a1.37,1.37,0,0,1,0,2.73Z"/></svg>