<svg id="Layer_1" data-name="Layer 1" xmlns="http://www.w3.org/2000/svg" viewBox="0 0 64 64"><defs><style>.cls-1{fill:#00456b;fill-rule:evenodd;}</style></defs><title>icon-taxes</title><path class="cls-1" d="M5.39,33.07h5.27l-4.6,4.6a26.58,26.58,0,0,0,52.46-4.6h2.66a29.24,29.24,0,0,1-57.3,6.77L0,43.71V33.07H5.39ZM29,25.32A1.85,1.85,0,0,0,28,27a2,2,0,0,0,.39,1.22,3.81,3.81,0,0,0,1.25,1c.23.12.57.28,1,.45V24.81A4.62,4.62,0,0,0,29,25.32Zm5.63,12.81A2.23,2.23,0,0,0,35.83,36a2.26,2.26,0,0,0-.94-1.8,8.93,8.93,0,0,0-1.64-.92v5.28A5.26,5.26,0,0,0,34.63,38.12Zm2.77-5.27a4,4,0,0,1,1.17,3,4.43,4.43,0,0,1-2,3.87,7.82,7.82,0,0,1-3.36,1.2v2.82H30.59V41a11.8,11.8,0,0,1-5.27-1.1V37.39a14.4,14.4,0,0,0,2.9,1,12.51,12.51,0,0,0,2.37.33V32.27a18.6,18.6,0,0,1-3.14-1.41,4.92,4.92,0,0,1-1.64-1.58,4.22,4.22,0,0,1,1.32-5.57,7.5,7.5,0,0,1,3.46-1.17V19.77h2.66v2.71a15.3,15.3,0,0,1,4.92,1.13l-1,2.21a15,15,0,0,0-3.91-1v5.86A11.78,11.78,0,0,1,37.4,32.86Zm23.71-2.45H53.19l4.6-4.6a26.55,26.55,0,0,0-52.41,4.6H2.73A29.2,29.2,0,0,1,60,23.64l3.87-3.87V30.41Z"/></svg>