<svg id="Layer_1" data-name="Layer 1" xmlns="http://www.w3.org/2000/svg" viewBox="0 0 64 64"><defs><style>.cls-1{fill:#00456b;}</style></defs><title>icon-moscow-hosts</title><path class="cls-1" d="M54.33,39.76a7.56,7.56,0,0,0-4.23-3.08l-.11,0-7.82-1.17c-1.24-.8-1.38-2.77-1.38-4.92a12.1,12.1,0,0,0,3.94-8.93V15.95A12.15,12.15,0,0,0,32.59,3.81H31.07A12.15,12.15,0,0,0,18.93,15.95v5.68a12.1,12.1,0,0,0,3.94,8.93c0,2.15-.14,4.12-1.38,4.92l-7.82,1.17-.11,0a7.56,7.56,0,0,0-4.23,3.08,8.54,8.54,0,0,0-1.48,4.76V57.26a3.09,3.09,0,0,0,3.22,2.93H52.59a3.09,3.09,0,0,0,3.22-2.93V44.52A8.54,8.54,0,0,0,54.33,39.76Zm-13.55-3c-.75,3.84-8.95,11.09-8.95,11.09s-8.19-7.25-8.95-11.09c1.39-1.15,1.75-3,1.84-4.76a12.17,12.17,0,0,0,14.22,0C39,33.73,39.38,35.63,40.78,36.78ZM20.93,15.95A10.15,10.15,0,0,1,31.07,5.81h1.52A10.15,10.15,0,0,1,42.73,15.95v5.68A10.15,10.15,0,0,1,32.59,31.77H31.07A10.15,10.15,0,0,1,20.93,21.63Zm33,41.31a1.24,1.24,0,0,1-1.34,1.06H11.06a1.24,1.24,0,0,1-1.34-1.06V44.52a6.29,6.29,0,0,1,4.29-6l7.09-1.06C22.15,42,31.83,50.75,31.83,50.75S41.51,42,42.56,37.43l7.09,1.06a6.29,6.29,0,0,1,4.29,6Z"/><path class="cls-1" d="M35.34,36.21A20.39,20.39,0,0,0,32,37.93a19.79,19.79,0,0,0-3.33-1.73c-1-.33-1.54.11-1.54,1.33v3c0,1,.25,1.72,1.54,1.33A18.59,18.59,0,0,0,32,40.13a17.19,17.19,0,0,0,3.33,1.73c1.2.33,1.54,0,1.54-1.33v-3C36.88,36.28,36.5,35.81,35.34,36.21Z"/><path class="cls-1" d="M47,49.58a1.71,1.71,0,0,0,0-.24,1.73,1.73,0,0,0-3.46,0,1.7,1.7,0,0,0,0,.24,6.69,6.69,0,0,0-4.72,4.68H51.72A6.69,6.69,0,0,0,47,49.58Z"/><rect class="cls-1" x="37.36" y="55.11" width="15.81" height="2.3" rx="0.92" ry="0.92"/></svg>