<svg id="Layer_1" data-name="Layer 1" xmlns="http://www.w3.org/2000/svg" viewBox="0 0 64 64"><defs><style>.cls-1{fill:#00456b;}</style></defs><title>icon-vipparty</title><g id="_Group_" data-name="&lt;Group&gt;"><path id="_Compound_Path_" data-name="&lt;Compound Path&gt;" class="cls-1" d="M46.2,56.13a1.32,1.32,0,1,0,1.59,1h0A1.32,1.32,0,0,0,46.2,56.13Zm.26,1h.06a.23.23,0,0,1,.23.18h0l-.46.11A.24.24,0,0,1,46.46,57.18Zm.11.46a.23.23,0,0,1-.28-.17l.46-.11A.24.24,0,0,1,46.57,57.64Z"/><path id="_Compound_Path_2" data-name="&lt;Compound Path&gt;" class="cls-1" d="M3.32,30.27a.77.77,0,0,0,.45.44l4.37,1.63a.78.78,0,0,0,.27,0h8.14a.77.77,0,0,0,0,.23l3.3,13.33a.77.77,0,0,0,.35.48l14.08,8.5.34,1.39-.92.23a.78.78,0,0,0-.57.94l1.47,5.94a.78.78,0,0,0,.75.59l.19,0,14.33-3.54a.77.77,0,0,0,.57-.94L49,53.56A.77.77,0,0,0,48,53l-.39.1-5.12-20.7H56.66a.78.78,0,0,0,.27,0l4.38-1.63a.77.77,0,0,0,.5-.78l-.06-.84a.77.77,0,0,0-.77-.72H37.32V12.44a6,6,0,1,0-6.7-6.73H25.74a.78.78,0,0,0-.78.78V28.37H3.71A.77.77,0,0,0,3,29.43ZM38,35.81l.44,1.78-.32,2.57a2.72,2.72,0,0,1-2,2.3l-1.41.35-3.88-2.65-1.61-6.53a4.77,4.77,0,0,0-.5-1.23h9.85A4.48,4.48,0,0,0,38,35.81Zm-13.4,5.91-2.31-9.34H23.4a3.19,3.19,0,0,1,1.89,2.18L27,41.39a.77.77,0,0,0,.32.45l3,2-.81.2a2.7,2.7,0,0,1-2.23-.43Zm7.74,1.66-3.88-2.65L26.8,34.2a4.72,4.72,0,0,0-.9-1.81h.77a3.19,3.19,0,0,1,1,1.61l1.69,6.82a.77.77,0,0,0,.31.45l3,2Zm9.83-12.55H8.55L6.1,29.92H59l-2.46.91Zm6.63,28.28L35.94,62.29l-1.1-4.43,12.82-3.17Zm-2.61-5.66-10,2.47-.42-1.7a.77.77,0,0,0-.35-.48L21.3,45.26l-3-12.18a3.21,3.21,0,0,1,3.11,2.44l1.69,6.82a.77.77,0,0,0,.3.44l3,2.13a4.25,4.25,0,0,0,3.51.68L36.42,44a4.28,4.28,0,0,0,3.2-3.61L40,37.63a.77.77,0,0,0,0-.28l-.47-1.92a2.94,2.94,0,0,1,1.09-3.05h.39ZM35.77,10.87a4.46,4.46,0,0,1-3.58-3.6h3.58ZM36.57,2a4.45,4.45,0,0,1,.75,8.84V6.49a.77.77,0,0,0-.78-.78H32.19A4.46,4.46,0,0,1,36.57,2ZM26.51,7.27h4.11a6,6,0,0,0,5.15,5.17v1.47H26.51Zm0,8.32h9.26V28.37H26.51Z"/></g></svg>