<svg id="Layer_1" data-name="Layer 1" xmlns="http://www.w3.org/2000/svg" viewBox="0 0 64 64"><defs><style>.cls-1,.cls-2{fill:#00456b;stroke:#00456b;stroke-miterlimit:10;fill-rule:evenodd;}.cls-1{stroke-width:0.5px;}.cls-2{stroke-width:0.75px;}</style></defs><title>icon-breakfast</title><path class="cls-1" d="M40.21,28.63a18.26,18.26,0,0,0-2.91-1.05A.65.65,0,1,0,37,28.83a17,17,0,0,1,2.7,1,.65.65,0,0,0,.54-1.18"/><path class="cls-1" d="M49.58,38.51A18.28,18.28,0,0,0,42.64,30a.65.65,0,0,0-.71,1.08A17,17,0,0,1,48.38,39a.65.65,0,1,0,1.2-.48"/><path class="cls-1" d="M50.64,42.34c0-.25-.09-.51-.14-.75a.65.65,0,1,0-1.27.26c0,.23.09.47.13.7a.65.65,0,0,0,.64.54h.1a.65.65,0,0,0,.54-.74"/><path class="cls-2" d="M32.11,24.46A23.15,23.15,0,0,1,55.22,46.87H9A23.15,23.15,0,0,1,32.11,24.46m-1.09-5a1.09,1.09,0,1,1,1.09,1.09A1.09,1.09,0,0,1,31,19.44ZM63.29,46.87H56.65A24.58,24.58,0,0,0,32.82,23v-1.2a2.52,2.52,0,1,0-1.43,0V23A24.58,24.58,0,0,0,7.57,46.87H.71a.71.71,0,0,0,0,1.43H63.29a.71.71,0,0,0,0-1.43Z"/></svg>