<svg id="Layer_1" data-name="Layer 1" xmlns="http://www.w3.org/2000/svg" viewBox="0 0 64 64"><defs><style>.cls-1{fill:#00456b;}</style></defs><title>icon-flights</title><path class="cls-1" d="M19.28,62.42a5.72,5.72,0,0,1-4.07-1.68l-11-11a5.77,5.77,0,0,1-1.62-4.89A.73.73,0,0,1,4,45,4.31,4.31,0,0,0,5.2,48.67l11,11a4.31,4.31,0,0,0,6.09,0L35.38,46.65H27.54a.73.73,0,0,1,0-1.46h9.6a.73.73,0,0,1,.51,1.24l-14.3,14.3A5.72,5.72,0,0,1,19.28,62.42Z"/><path class="cls-1" d="M60.37,22a.73.73,0,0,1-.44-.15A4.24,4.24,0,0,0,57.37,21H26.5A.73.73,0,0,1,26,19.73l14.3-14.3a5.78,5.78,0,0,1,8.15,0l11,11a5.77,5.77,0,0,1,1.62,4.89.73.73,0,0,1-.72.62ZM28.26,19.52h29.1a5.69,5.69,0,0,1,2.29.48,4.3,4.3,0,0,0-1.22-2.5l-11-11a4.32,4.32,0,0,0-6.09,0Z"/><path class="cls-1" d="M32.34,51.45a.73.73,0,0,1-.51-.21L27,46.43a.73.73,0,0,1,1-1l4.8,4.8a.73.73,0,0,1-.51,1.24Z"/><path class="cls-1" d="M27.54,46.65H6.28A5.77,5.77,0,0,1,.52,40.89V25.28a5.77,5.77,0,0,1,5.76-5.76H26.5a.73.73,0,0,1,0,1.46H6.28A4.31,4.31,0,0,0,2,25.28V40.89a4.31,4.31,0,0,0,4.3,4.3H27.54a.73.73,0,1,1,0,1.46Z"/><path class="cls-1" d="M57.37,46.65H37.14a.73.73,0,0,1,0-1.46H57.37a4.31,4.31,0,0,0,4.3-4.3V25.28a4.34,4.34,0,0,0-1.74-3.45.73.73,0,0,1,.87-1.16,5.81,5.81,0,0,1,2.32,4.61V40.89A5.77,5.77,0,0,1,57.37,46.65Z"/><path class="cls-1" d="M43.93,46.65a.73.73,0,0,1-.73-.73V20.25a.73.73,0,0,1,1.46,0V45.92A.73.73,0,0,1,43.93,46.65Z"/><path class="cls-1" d="M5.47,36.35a.73.73,0,0,1-.73-.73v-2a.73.73,0,0,1,1.46,0v2A.73.73,0,0,1,5.47,36.35Z"/><path class="cls-1" d="M16.25,29.34a.73.73,0,0,1-.73-.73V26a4.21,4.21,0,0,0-.36-1.31A4.17,4.17,0,0,0,14.8,26s0,.07,0,.13v2.49a.73.73,0,1,1-1.46,0V26.08a.91.91,0,0,1,0-.12v-.07c0-.61.49-2.87,1.81-2.87s1.76,2.26,1.81,2.87c0,.07,0,.1,0,.13v2.6a.73.73,0,0,1-.73.73Z"/><path class="cls-1" d="M14.47,39.85a.73.73,0,0,1-.72-.61,34.78,34.78,0,0,1-.41-3.77V33.68a.73.73,0,0,1,.73-.73h0a.73.73,0,0,1,.73.73v1.78A33.82,33.82,0,0,0,15.19,39a.73.73,0,0,1-.6.84Z"/><path class="cls-1" d="M15.85,39.85h-.12a.73.73,0,0,1-.6-.84,34.42,34.42,0,0,0,.39-3.53V33.68a.73.73,0,0,1,.73-.73h0a.73.73,0,0,1,.73.73v1.78a34.76,34.76,0,0,1-.41,3.77A.73.73,0,0,1,15.85,39.85Z"/><path class="cls-1" d="M5.47,34.34A.73.73,0,0,1,5.12,33l1.45-.8L13.7,28a.73.73,0,1,1,.74,1.26L7.29,33.44l-1.47.81A.72.72,0,0,1,5.47,34.34Z"/><path class="cls-1" d="M5.47,36.35a.73.73,0,0,1-.19-1.43l7-1.94a.73.73,0,1,1,.39,1.4l-7,1.94Z"/><path class="cls-1" d="M24.85,36.35a.73.73,0,0,1-.73-.73v-2a.73.73,0,0,1,1.46,0v2A.73.73,0,0,1,24.85,36.35Z"/><path class="cls-1" d="M24.85,34.34a.73.73,0,0,1-.35-.09L23,33.45l-7.16-4.2A.73.73,0,1,1,16.62,28l7.15,4.19L25.2,33a.73.73,0,0,1-.35,1.37Z"/><path class="cls-1" d="M24.85,36.35l-.2,0-7-1.94a.73.73,0,1,1,.39-1.4l7,1.94a.73.73,0,0,1-.19,1.43Z"/><path class="cls-1" d="M14.07,34.41H12.45a.73.73,0,0,1,0-1.46h1.62a.73.73,0,1,1,0,1.46Z"/><path class="cls-1" d="M11.72,41.77a.73.73,0,0,1-.42-1.32l2.75-1.93a.73.73,0,0,1,.83,1.19l-2.75,1.93A.72.72,0,0,1,11.72,41.77Z"/><path class="cls-1" d="M11.72,43.15a.73.73,0,0,1-.73-.73V41a.73.73,0,1,1,1.46,0v1.38A.73.73,0,0,1,11.72,43.15Z"/><path class="cls-1" d="M11.72,43.15a.73.73,0,0,1-.25-1.41l3.44-1.24a.73.73,0,1,1,.49,1.37L12,43.11A.73.73,0,0,1,11.72,43.15Z"/><path class="cls-1" d="M17.87,34.41H16.25a.73.73,0,0,1,0-1.46h1.62a.73.73,0,1,1,0,1.46Z"/><path class="cls-1" d="M18.6,41.77a.72.72,0,0,1-.42-.13l-2.75-1.93a.73.73,0,0,1,.83-1.19L19,40.45a.73.73,0,0,1-.42,1.32Z"/><path class="cls-1" d="M18.6,43.15a.73.73,0,0,1-.73-.73V41a.73.73,0,1,1,1.46,0v1.38A.73.73,0,0,1,18.6,43.15Z"/><path class="cls-1" d="M18.6,43.15a.73.73,0,0,1-.25,0l-3.44-1.24a.73.73,0,1,1,.49-1.37l3.44,1.24a.73.73,0,0,1-.25,1.41Z"/><path class="cls-1" d="M40.71,26.73H29a.73.73,0,1,1,0-1.46H40.71a.73.73,0,0,1,0,1.46Z"/><path class="cls-1" d="M40.71,31.45H29A.73.73,0,1,1,29,30H40.71a.73.73,0,0,1,0,1.46Z"/><path class="cls-1" d="M40.71,36.17H29a.73.73,0,1,1,0-1.46H40.71a.73.73,0,0,1,0,1.46Z"/><path class="cls-1" d="M40.71,40.89H29a.73.73,0,1,1,0-1.46H40.71a.73.73,0,0,1,0,1.46Z"/></svg>