<svg id="Layer_1" data-name="Layer 1" xmlns="http://www.w3.org/2000/svg" viewBox="0 0 64 64"><defs><style>.cls-1,.cls-2{fill:#00456b;}.cls-1,.cls-3{stroke:#00456b;stroke-miterlimit:10;}.cls-3{fill:none;stroke-width:2px;}</style></defs><title>icon-transfers</title><path class="cls-1" d="M59.89,63.34H5.73a1.69,1.69,0,0,1-1.22-.5,1.3,1.3,0,0,1-.36-1.15c.66-3.51,2-9.6,3.34-11s16-7.12,17.65-7.76l.24-.09.2.16a11.86,11.86,0,0,0,7.16,2.24,11,11,0,0,0,6.91-2.32l.19-.15.24.08s4.23,1.43,8.53,3.08c8.81,3.39,9.48,4.47,9.7,4.83,1,1.69,2.42,7.56,3.14,10.91a1.29,1.29,0,0,1-.34,1.17A1.69,1.69,0,0,1,59.89,63.34ZM25.25,43.71C18.8,46.2,9.1,50.18,8.13,51.18S6.06,56.07,5,61.82a.62.62,0,0,0,.17.55.81.81,0,0,0,.58.24H59.89a.8.8,0,0,0,.59-.24.62.62,0,0,0,.16-.56c-.58-2.66-2-9-3.06-10.69-.9-1.45-10.9-5.24-17.56-7.49A12.1,12.1,0,0,1,32.76,46,12.9,12.9,0,0,1,25.25,43.71Z"/><path class="cls-1" d="M32,62.91l7.83-20.14.83.28,3.14,7.61-5.72,4,1,5.4Zm8.2-18.82L33.44,61.53l4.78-1.91-1-5.27,5.63-3.94Z"/><path class="cls-1" d="M33.15,62.89l-7-2.73,1-5.41-5.72-4,3.14-7.61.83-.28Zm-6.09-3.18,4.68,1.82L25.06,44.18,22.45,50.5l5.63,3.94Z"/><path class="cls-1" d="M32.68,20.66c-7.56,0-13.71-3.86-13.71-8.6v-.37h1.39l.07,0a42,42,0,0,0,12.3,1.62A42,42,0,0,0,45,11.72l.07,0h1.29v.37C46.39,16.81,40.24,20.66,32.68,20.66ZM19.82,12.44c.32,4.16,6,7.49,12.86,7.49s12.54-3.33,12.86-7.49h-.29a43.05,43.05,0,0,1-12.51,1.64,43.06,43.06,0,0,1-12.51-1.64Z"/><path class="cls-1" d="M21.92,16.47l-1.13-.24c-4-.85-5.88-3-5.9-6.67,0-2.89,3.6-3.89,6-4.55a15.45,15.45,0,0,0,1.57-.48l1.39-.59c2.81-1.2,7.06-3,9-3,1.62,0,5.11,1.54,7.92,2.78l1.59.69a14.25,14.25,0,0,0,2,.55c2.61.61,6.56,1.53,6.56,4.62,0,3.65-2,5.75-6.3,6.61l-1.09.22.66-.8a5.59,5.59,0,0,0,1.37-3.17h-.29a43.06,43.06,0,0,1-12.51,1.64,43.06,43.06,0,0,1-12.51-1.64h-.39a5.61,5.61,0,0,0,1.41,3.21ZM32.84,1.67c-1.75,0-6.06,1.84-8.64,2.94l-1.4.59a15.89,15.89,0,0,1-1.67.52c-2.28.63-5.41,1.49-5.4,3.84a5.33,5.33,0,0,0,4.19,5.68,5.94,5.94,0,0,1-1-3.17v-.37h1.39l.07,0a42,42,0,0,0,12.3,1.62A42,42,0,0,0,45,11.72l.07,0h1.29v.37a5.94,5.94,0,0,1-.95,3.15c3.18-.89,4.62-2.66,4.62-5.65,0-2.52-3.43-3.32-5.94-3.9A14.65,14.65,0,0,1,42,5.08l-1.6-.7C37.95,3.3,34.26,1.67,32.84,1.67Z"/><polygon class="cls-2" points="39.27 44.4 37.62 39.2 34.39 40.28 30.34 40.28 27.42 39.24 26.21 43.96 24.28 43.46 26.03 36.63 30.68 39.28 35.07 39.28 38.91 36.67 41.17 43.79 39.27 44.4"/><polyline class="cls-3" points="37.79 49.94 32.63 46.21 27.56 50.2"/><path class="cls-2" d="M43.75,17.11V27.56a11,11,0,1,1-21.9,0V17.32a8.62,8.62,0,0,1-2-2.23c0,.05,0,.1,0,.15V27.56a13,13,0,1,0,25.9,0V15.24c0-.19,0-.36,0-.54A8.17,8.17,0,0,1,43.75,17.11Z"/></svg>