<svg id="Layer_1" data-name="Layer 1" xmlns="http://www.w3.org/2000/svg" viewBox="0 0 64 64"><defs><style>.cls-1{fill:#00456b;fill-rule:evenodd;}</style></defs><title>icon-transfers-group</title><path class="cls-1" d="M55.74,29.13a1,1,0,0,0-1-1H9.28a1,1,0,0,0,0,2H54.72a1,1,0,0,0,1-1Z"/><path class="cls-1" d="M15.85,49.71H9.19a1,1,0,0,0,0,2h6.66a1,1,0,0,0,0-2"/><path class="cls-1" d="M42.7,49.71H21.3a1,1,0,1,0,0,2H42.7a1,1,0,1,0,0-2"/><path class="cls-1" d="M54.81,49.71H48.15a1,1,0,1,0,0,2h6.66a1,1,0,1,0,0-2"/><path class="cls-1" d="M40.35,41.17l-1.08,2.88H24.73l-1.08-2.88a1,1,0,1,0-1.91.72l1.33,3.54a1,1,0,0,0,1,.66H40a1,1,0,0,0,1-.66l1.33-3.54a1,1,0,1,0-1.91-.72Z"/><path class="cls-1" d="M56.17,55.16H7.83a1.7,1.7,0,0,1-1.7-1.7V46.09H18.58a1,1,0,0,0,1-1.38l-1.33-3.54a4.21,4.21,0,0,0-3.72-2.58H9.87a1,1,0,1,0,0,2h4.62a2.16,2.16,0,0,1,1.8,1.25l.81,2.16h-11V29.24l3.41-16H54.47l3.41,16V44.05h-11l.81-2.16a2.16,2.16,0,0,1,1.8-1.25h4.62a1,1,0,0,0,0-2H49.51a4.21,4.21,0,0,0-3.72,2.58l-1.33,3.54a1,1,0,0,0,1,1.38H57.87v7.37a1.7,1.7,0,0,1-1.7,1.7M11.46,4.22a2.52,2.52,0,0,1,2.29-1.86H50.25a2.52,2.52,0,0,1,2.29,1.86l1.49,7H10ZM63,21.3a1,1,0,0,0-1,1v5.79H59.72L56.29,12h0L54.54,3.8A4.52,4.52,0,0,0,50.25.32H13.75A4.52,4.52,0,0,0,9.46,3.8L7.71,12,4.28,28.11H2V22.32a1,1,0,1,0-2,0v6.81a1,1,0,0,0,1,1H4.09v23.3a3.75,3.75,0,0,0,2.72,3.6V63.3a1,1,0,0,0,1,1h9.38a1,1,0,0,0,1-1v-3a1,1,0,1,0-2,0v2H8.85V57.2h46.3v5.08H47.81v-2a1,1,0,1,0-2,0v3a1,1,0,0,0,1,1h9.38a1,1,0,0,0,1-1V57.06a3.75,3.75,0,0,0,2.72-3.6V30.15H63a1,1,0,0,0,1-1V22.32A1,1,0,0,0,63,21.3Z"/></svg>