<svg id="Layer_1" data-name="Layer 1" xmlns="http://www.w3.org/2000/svg" viewBox="0 0 64 64"><defs><style>.cls-1{fill:#00456b;fill-rule:evenodd;}</style></defs><title>icon-host</title><path class="cls-1" d="M54.11,54.49a1.24,1.24,0,0,1-1.34,1.06H11.23a1.24,1.24,0,0,1-1.34-1.06V50.61a6.29,6.29,0,0,1,4.29-6l7.09-1.06c1.05,4.56,5.49,7.9,10.73,7.9s9.68-3.33,10.73-7.9l7.09,1.06a6.29,6.29,0,0,1,4.29,6ZM20.92,25.77a1,1,0,0,0,0-.17V20.42A3.07,3.07,0,0,1,24,17.35H41a.94.94,0,1,0,0-1.88H24A5,5,0,0,0,19,20.42v2.83a7,7,0,0,1-1.13-3.83v-5A5.08,5.08,0,0,1,23,9.34a.94.94,0,0,0,.94-.94A2.07,2.07,0,0,1,26,6.33H39a7.08,7.08,0,0,1,7.08,7.08v6A7,7,0,0,1,45,23.25V19.42a.94.94,0,0,0-1.88,0v7c0,6.66-5,12.09-11.08,12.09S20.92,33.1,20.92,26.43ZM32,40.4a12.24,12.24,0,0,0,7.11-2.29c.09,1.71.45,3.62,1.84,4.76-.75,3.84-4.5,6.67-8.95,6.67s-8.19-2.83-8.95-6.67c1.39-1.15,1.75-3,1.84-4.76A12.24,12.24,0,0,0,32,40.4Zm18.27,2.36-.11,0-7.82-1.17c-1.26-.82-1.38-2.85-1.39-5a14.46,14.46,0,0,0,4-10.09v-.32a8.91,8.91,0,0,0,3-6.69v-6a9,9,0,0,0-9-9H26a4,4,0,0,0-3.84,3.06A7,7,0,0,0,16,14.41v5a8.91,8.91,0,0,0,3,6.69v.32a14.46,14.46,0,0,0,4,10.09c0,2.2-.12,4.22-1.39,5l-7.82,1.17-.11,0A7.56,7.56,0,0,0,9.5,45.84,8.54,8.54,0,0,0,8,50.61v3.88a3.09,3.09,0,0,0,3.22,2.93H52.77A3.09,3.09,0,0,0,56,54.49V50.61a8.54,8.54,0,0,0-1.48-4.76A7.56,7.56,0,0,0,50.27,42.76Z"/><path class="cls-1" d="M5.95,46.54H2.41c-.31,0-.54-.19-.54-.35V43.67A3.73,3.73,0,0,1,4.39,40.1l5.11-.77H9.6l.1,0h0l.08,0h.06a3.67,3.67,0,0,0,1.67-3,8.18,8.18,0,0,0,7.86.3.94.94,0,0,0-.84-1.68,6.29,6.29,0,0,1-2.82.67C12,35.51,8.89,32.15,8.89,28V24a1.66,1.66,0,0,1,1.65-1.65H13a.94.94,0,1,0,0-1.88H10.55A3.54,3.54,0,0,0,7,24v.49a4.26,4.26,0,0,1-.13-1V20.24a3,3,0,0,1,3-3,.94.94,0,0,0,.94-.94,1,1,0,0,1,1-1H13a.94.94,0,1,0,0-1.88H11.78a2.89,2.89,0,0,0-2.75,2,4.84,4.84,0,0,0-4,4.76v3.24A6.09,6.09,0,0,0,7,28H7A9.68,9.68,0,0,0,9.72,34.8c0,1.19-.1,2.27-.69,2.7l-5,.75-.11,0A5.64,5.64,0,0,0,0,43.67v2.51a2.33,2.33,0,0,0,2.41,2.23H5.95a.94.94,0,0,0,0-1.88Z"/><path class="cls-1" d="M60.06,38.28l-.11,0-5-.75c-.59-.44-.68-1.51-.69-2.7A9.68,9.68,0,0,0,57,28h0a6.1,6.1,0,0,0,2-4.53V18.42A5,5,0,0,0,54,13.47H51a.94.94,0,1,0,0,1.88h3a3.07,3.07,0,0,1,3.07,3.07v5.07a4.28,4.28,0,0,1-.12,1V24a3.54,3.54,0,0,0-3.53-3.53H51a.94.94,0,1,0,0,1.88h2.42A1.66,1.66,0,0,1,55.11,24v4c0,4.13-3.07,7.49-6.84,7.49a6.29,6.29,0,0,1-2.82-.67.94.94,0,0,0-.84,1.68,8.18,8.18,0,0,0,7.86-.3,3.67,3.67,0,0,0,1.67,3h.06l.08,0h0l.1,0h.09l5.11.77a3.73,3.73,0,0,1,2.51,3.57v2.51c0,.17-.23.35-.53.35H58.05a.94.94,0,0,0,0,1.88h3.54A2.33,2.33,0,0,0,64,46.18V43.67a5.64,5.64,0,0,0-3.94-5.4Z"/></svg>