<svg id="Layer_1" data-name="Layer 1" xmlns="http://www.w3.org/2000/svg" viewBox="0 0 64 64"><defs><style>.cls-1{fill:#00456b;}</style></defs><title>icon-city</title><path class="cls-1" d="M40.19,18A8.39,8.39,0,1,0,31.8,26.4,8.4,8.4,0,0,0,40.19,18ZM25.51,18A6.29,6.29,0,1,1,31.8,24.3,6.3,6.3,0,0,1,25.51,18Z"/><path class="cls-1" d="M54.68,33.23l-8.93-3c.76-1.46,1.49-2.95,2.14-4.44a17.47,17.47,0,0,0,1.74-7.6,17.82,17.82,0,0,0-35.64,0,17.39,17.39,0,0,0,1.7,7.56c.66,1.5,1.39,3,2.16,4.48l-8.91,3-8.07,30,15.22-7L31.8,63.5l15.73-7.34,15.22,7ZM17.58,24.9a15.36,15.36,0,0,1-1.51-6.69,15.72,15.72,0,0,1,31.45,0A15.44,15.44,0,0,1,46,24.94C41.69,34.77,34.25,44.46,31.8,47.51,29.35,44.46,21.89,34.76,17.58,24.9ZM47.53,53.85,31.8,61.19,16.08,53.85,4,59.41l6.61-24.55,8.19-2.73A127,127,0,0,0,31,49.84l.8,1,.8-1A127.48,127.48,0,0,0,44.74,32.12L53,34.86l6.61,24.55Z"/></svg>