<svg id="svg" version="1.1" xmlns="http://www.w3.org/2000/svg" xmlns:xlink="http://www.w3.org/1999/xlink" width="400" height="400" viewBox="0, 0, 400,400"><g id="svgg"><path id="path0" d="M89.087 55.185 C 88.035 55.596,87.091 55.952,86.989 55.976 C 86.887 56.000,86.263 56.127,85.602 56.260 C 84.941 56.392,84.400 56.635,84.400 56.800 C 84.400 56.966,83.230 57.436,81.800 57.845 C 80.370 58.255,79.200 58.713,79.200 58.863 C 79.200 59.013,78.640 59.260,77.954 59.410 C 77.269 59.560,75.557 60.295,74.149 61.042 C 72.741 61.789,71.321 62.400,70.994 62.400 C 70.667 62.400,70.400 62.580,70.400 62.800 C 70.400 63.020,70.113 63.200,69.762 63.200 C 69.076 63.200,67.104 64.224,65.909 65.200 C 65.505 65.530,65.045 65.815,64.887 65.834 C 64.137 65.921,62.512 66.807,61.717 67.562 C 61.231 68.023,60.638 68.400,60.400 68.400 C 60.162 68.400,59.573 68.767,59.091 69.215 C 58.610 69.664,57.807 70.134,57.308 70.259 C 56.809 70.384,56.400 70.656,56.400 70.864 C 56.400 71.071,55.770 71.504,55.000 71.826 C 54.230 72.148,53.600 72.588,53.600 72.805 C 53.600 73.022,53.400 73.200,53.155 73.200 C 52.720 73.200,50.959 74.502,48.963 76.300 C 48.413 76.795,47.899 77.200,47.820 77.200 C 47.674 77.200,45.337 79.164,43.776 80.600 C 43.298 81.040,42.588 81.587,42.199 81.815 C 41.810 82.043,41.507 82.403,41.525 82.615 C 41.543 82.827,41.117 83.231,40.579 83.513 C 40.040 83.795,39.600 84.290,39.600 84.613 C 39.600 84.936,39.351 85.200,39.047 85.200 C 38.744 85.200,38.033 85.805,37.469 86.544 C 36.905 87.284,35.714 88.649,34.822 89.577 C 33.930 90.506,33.200 91.521,33.200 91.833 C 33.200 92.145,32.932 92.400,32.604 92.400 C 32.276 92.400,31.351 93.390,30.547 94.600 C 29.744 95.810,28.929 96.800,28.737 96.800 C 28.544 96.800,28.075 97.475,27.694 98.300 C 27.312 99.125,26.595 100.213,26.100 100.718 C 25.605 101.223,25.200 101.898,25.200 102.218 C 25.200 102.538,25.049 102.800,24.865 102.800 C 24.681 102.800,24.014 103.835,23.383 105.100 C 22.751 106.365,22.116 107.490,21.971 107.600 C 21.826 107.710,21.570 108.250,21.401 108.800 C 21.233 109.350,20.782 110.250,20.400 110.800 C 20.018 111.350,19.567 112.250,19.399 112.800 C 19.230 113.350,18.972 113.890,18.825 114.000 C 18.454 114.278,17.200 117.025,17.200 117.560 C 17.200 117.802,17.064 118.000,16.898 118.000 C 16.731 118.000,16.357 118.585,16.065 119.300 C 15.774 120.015,15.010 121.721,14.368 123.092 C 13.725 124.462,13.200 125.823,13.200 126.116 C 13.200 126.410,12.840 127.395,12.400 128.306 C 11.960 129.216,11.599 130.375,11.598 130.881 C 11.596 131.386,11.326 132.316,10.998 132.946 C 10.669 133.576,10.400 134.791,10.400 135.646 C 10.400 136.501,10.241 137.200,10.047 137.200 C 9.852 137.200,9.691 137.695,9.689 138.300 C 9.687 138.905,9.476 140.390,9.221 141.600 C 8.966 142.810,8.667 144.686,8.556 145.768 C 8.446 146.850,8.205 148.020,8.022 148.368 C 7.839 148.716,7.645 150.890,7.592 153.200 C 7.368 162.948,7.359 164.618,7.532 164.954 C 7.632 165.149,7.735 166.409,7.761 167.754 C 7.786 169.099,7.911 170.380,8.037 170.600 C 8.163 170.820,8.302 172.147,8.345 173.550 C 8.389 174.952,8.584 176.396,8.778 176.759 C 8.972 177.122,9.246 178.488,9.388 179.795 C 9.529 181.102,9.793 182.358,9.975 182.586 C 10.156 182.814,10.403 183.630,10.522 184.400 C 10.642 185.170,10.950 186.700,11.207 187.800 C 11.464 188.900,11.688 190.025,11.704 190.300 C 11.720 190.575,11.894 190.800,12.090 190.800 C 12.287 190.800,12.335 190.982,12.197 191.205 C 12.059 191.428,12.224 192.166,12.563 192.845 C 12.902 193.525,13.294 194.692,13.434 195.440 C 13.574 196.188,13.849 196.800,14.045 196.800 C 14.240 196.800,14.400 197.057,14.400 197.371 C 14.400 197.685,15.052 199.350,15.848 201.071 C 16.644 202.792,17.328 204.380,17.367 204.600 C 17.406 204.820,17.693 205.450,18.004 206.000 C 18.315 206.550,18.532 207.135,18.485 207.300 C 18.438 207.465,18.580 207.600,18.800 207.600 C 19.020 207.600,19.200 207.951,19.200 208.380 C 19.200 208.809,19.515 209.344,19.900 209.568 C 20.285 209.792,20.443 209.981,20.251 209.988 C 20.059 209.995,20.089 210.225,20.317 210.500 C 20.545 210.775,20.731 211.090,20.729 211.200 C 20.721 211.720,21.767 213.600,22.064 213.600 C 22.249 213.600,22.400 213.870,22.400 214.200 C 22.400 214.530,22.535 214.801,22.700 214.803 C 23.102 214.806,24.400 217.119,24.400 217.832 C 24.400 218.145,24.580 218.400,24.800 218.400 C 25.020 218.400,25.200 218.575,25.200 218.788 C 25.200 219.335,27.685 222.800,28.077 222.800 C 28.255 222.800,28.400 223.057,28.400 223.372 C 28.400 223.686,29.030 224.611,29.800 225.427 C 30.570 226.244,31.200 227.067,31.200 227.256 C 31.200 227.445,31.410 227.600,31.667 227.600 C 31.923 227.600,32.023 227.711,31.888 227.846 C 31.678 228.055,32.877 229.515,35.631 232.400 C 35.977 232.764,36.383 233.379,36.533 233.769 C 36.682 234.158,37.163 234.570,37.602 234.685 C 38.041 234.799,38.400 235.229,38.400 235.639 C 38.400 236.101,38.781 236.480,39.400 236.636 C 39.950 236.774,40.400 237.107,40.400 237.376 C 40.400 237.645,40.835 238.098,41.366 238.382 C 41.898 238.666,42.424 239.250,42.537 239.679 C 42.649 240.108,43.114 240.557,43.570 240.676 C 44.027 240.796,44.400 241.142,44.400 241.447 C 44.400 241.751,44.543 242.000,44.717 242.000 C 44.891 242.000,45.926 242.809,47.017 243.798 C 48.108 244.787,49.236 245.597,49.524 245.598 C 49.812 245.599,49.945 245.766,49.820 245.968 C 49.539 246.422,51.352 247.885,53.100 248.616 C 53.815 248.915,54.400 249.419,54.400 249.736 C 54.400 250.054,54.850 250.426,55.400 250.564 C 55.950 250.702,56.400 250.992,56.400 251.208 C 56.400 251.423,56.627 251.600,56.904 251.600 C 57.181 251.600,57.893 252.050,58.487 252.600 C 59.080 253.150,59.753 253.600,59.983 253.600 C 60.212 253.600,60.400 253.766,60.400 253.968 C 60.400 254.171,60.970 254.462,61.667 254.615 C 62.363 254.768,63.308 255.244,63.767 255.674 C 64.225 256.103,65.095 256.555,65.700 256.677 C 66.305 256.800,66.800 257.058,66.800 257.250 C 66.800 257.442,67.070 257.600,67.400 257.600 C 67.730 257.600,68.000 257.766,68.000 257.968 C 68.000 258.171,68.540 258.455,69.200 258.600 C 69.860 258.745,70.400 258.990,70.400 259.144 C 70.400 259.298,71.300 259.773,72.400 260.200 C 73.500 260.627,74.400 261.116,74.400 261.288 C 74.400 261.460,74.760 261.600,75.200 261.600 C 75.640 261.600,76.000 261.766,76.000 261.968 C 76.000 262.171,76.540 262.455,77.200 262.600 C 77.860 262.745,78.400 263.029,78.400 263.232 C 78.400 263.434,78.760 263.600,79.200 263.600 C 79.640 263.600,80.000 263.766,80.000 263.968 C 80.000 264.171,80.540 264.455,81.200 264.600 C 81.860 264.745,82.400 265.029,82.400 265.232 C 82.400 265.434,82.760 265.600,83.200 265.600 C 83.640 265.600,84.000 265.772,84.000 265.982 C 84.000 266.192,84.675 266.473,85.500 266.608 C 86.325 266.742,87.678 267.192,88.506 267.609 C 89.334 268.025,90.684 268.479,91.506 268.618 C 92.328 268.757,93.630 269.167,94.400 269.530 C 95.624 270.107,97.875 270.573,103.700 271.457 C 104.525 271.582,105.200 271.824,105.200 271.995 C 105.200 272.166,106.549 272.432,108.197 272.587 C 109.846 272.741,111.282 273.010,111.390 273.183 C 111.497 273.357,112.885 273.525,114.474 273.558 C 116.063 273.591,117.462 273.748,117.582 273.909 C 118.163 274.684,144.166 274.847,145.384 274.082 C 145.904 273.756,146.076 273.736,148.924 273.661 C 150.202 273.627,151.148 273.439,151.026 273.242 C 150.905 273.046,151.209 272.891,151.703 272.898 C 153.641 272.926,158.437 272.264,158.636 271.941 C 158.752 271.754,159.521 271.600,160.344 271.600 C 161.167 271.600,162.011 271.437,162.220 271.238 C 162.429 271.038,163.496 270.758,164.591 270.614 C 165.686 270.470,166.676 270.224,166.791 270.066 C 166.906 269.909,168.440 269.439,170.200 269.023 C 171.960 268.607,173.571 268.116,173.780 267.933 C 173.989 267.750,174.563 267.600,175.056 267.600 C 175.549 267.600,176.052 267.440,176.173 267.244 C 176.294 267.049,176.864 266.770,177.440 266.626 C 178.017 266.481,179.244 266.007,180.168 265.573 C 181.092 265.139,182.231 264.710,182.698 264.620 C 183.601 264.446,185.267 263.648,185.600 263.229 C 185.710 263.091,186.610 262.643,187.600 262.235 C 191.580 260.591,192.232 260.273,193.000 259.596 C 193.440 259.209,194.250 258.756,194.800 258.589 C 195.350 258.423,196.427 257.862,197.193 257.344 C 197.959 256.825,198.814 256.400,199.093 256.400 C 199.372 256.400,199.600 256.220,199.600 256.000 C 199.600 255.780,199.870 255.600,200.200 255.600 C 200.530 255.600,200.800 255.330,200.800 255.000 C 200.800 254.670,200.948 254.400,201.129 254.400 C 201.522 254.400,203.200 250.796,203.200 249.950 C 203.200 249.624,202.678 248.534,202.040 247.528 C 200.949 245.807,200.301 245.315,197.100 243.774 C 196.385 243.430,195.487 242.980,195.105 242.774 C 194.723 242.568,194.138 242.400,193.805 242.400 C 193.472 242.400,193.200 242.227,193.200 242.016 C 193.200 241.805,192.705 241.643,192.100 241.655 C 190.550 241.688,187.540 241.163,186.652 240.706 C 186.099 240.421,185.981 240.446,186.200 240.800 C 186.419 241.155,186.302 241.178,185.748 240.889 C 184.620 240.300,179.114 240.334,179.470 240.927 C 179.685 241.286,179.615 241.289,179.177 240.940 C 178.604 240.484,176.808 240.500,176.050 240.969 C 175.833 241.103,175.542 241.030,175.403 240.805 C 175.235 240.533,174.867 240.550,174.295 240.856 C 173.809 241.116,173.385 241.155,173.315 240.946 C 173.184 240.551,170.256 240.595,169.597 241.002 C 169.379 241.137,169.200 241.035,169.200 240.775 C 169.200 240.415,169.066 240.413,168.639 240.767 C 168.098 241.217,164.118 239.215,164.598 238.735 C 164.696 238.637,163.612 237.307,162.190 235.779 C 160.768 234.250,159.604 232.865,159.602 232.700 C 159.601 232.535,159.369 232.400,159.086 232.400 C 158.804 232.400,158.263 231.875,157.884 231.234 C 157.505 230.593,156.386 229.236,155.398 228.219 C 154.409 227.202,153.600 226.286,153.600 226.185 C 153.600 225.782,152.052 224.481,151.833 224.700 C 151.705 224.828,151.600 224.677,151.600 224.364 C 151.600 224.052,150.925 223.069,150.100 222.181 C 149.275 221.292,148.042 219.901,147.360 219.089 C 146.679 218.277,146.004 217.730,145.860 217.873 C 145.717 218.016,145.600 217.847,145.600 217.497 C 145.600 217.147,144.520 215.753,143.200 214.400 C 141.880 213.047,140.800 211.773,140.800 211.570 C 140.800 211.366,140.604 211.200,140.364 211.200 C 139.820 211.200,138.431 209.570,138.413 208.909 C 138.389 207.995,136.545 207.138,135.133 207.383 C 134.400 207.510,132.090 207.706,130.000 207.818 C 127.910 207.931,125.957 208.048,125.661 208.078 C 124.832 208.163,124.156 209.916,124.731 210.491 C 124.989 210.749,125.201 211.239,125.202 211.580 C 125.204 211.921,125.474 212.716,125.802 213.346 C 126.131 213.976,126.400 214.741,126.400 215.046 C 126.400 215.351,126.566 215.600,126.768 215.600 C 126.971 215.600,127.264 216.179,127.419 216.887 C 127.575 217.595,127.838 218.450,128.004 218.787 C 128.171 219.124,128.485 219.850,128.704 220.400 C 128.922 220.950,129.335 221.940,129.622 222.600 C 129.908 223.260,130.156 223.942,130.171 224.115 C 130.187 224.288,130.440 224.578,130.734 224.759 C 131.028 224.941,131.245 225.206,131.217 225.348 C 131.096 225.954,131.720 228.427,132.045 228.628 C 132.240 228.749,132.400 229.287,132.400 229.824 C 132.400 230.361,132.580 230.800,132.800 230.800 C 133.020 230.800,133.201 231.115,133.202 231.500 C 133.202 231.885,133.742 233.280,134.400 234.600 C 135.058 235.920,135.598 237.227,135.598 237.505 C 135.599 237.783,135.780 238.368,136.000 238.805 C 136.220 239.242,136.580 239.958,136.800 240.395 C 137.540 241.865,137.287 242.227,135.500 242.256 C 127.002 242.391,122.000 242.625,122.000 242.887 C 122.000 243.353,113.690 243.269,113.400 242.800 C 113.264 242.580,112.803 242.400,112.376 242.400 C 111.949 242.400,111.600 242.205,111.600 241.967 C 111.600 241.728,111.375 241.609,111.100 241.702 C 110.825 241.794,110.027 241.549,109.326 241.157 C 108.401 240.638,107.999 240.574,107.858 240.922 C 107.750 241.186,107.649 241.091,107.632 240.710 C 107.614 240.331,107.105 239.761,106.500 239.444 C 105.895 239.127,105.040 238.537,104.600 238.132 C 100.943 234.769,96.589 231.200,96.143 231.200 C 95.845 231.200,95.600 230.859,95.600 230.443 C 95.600 229.558,94.993 229.261,93.600 229.465 C 93.050 229.545,91.385 229.637,89.900 229.668 C 88.415 229.699,87.200 229.883,87.200 230.077 C 87.200 230.270,86.825 230.228,86.367 229.982 C 85.691 229.620,85.430 229.674,84.980 230.268 C 84.359 231.088,84.207 232.800,84.755 232.800 C 84.951 232.800,85.229 233.430,85.374 234.200 C 85.518 234.970,85.808 235.600,86.018 235.600 C 86.228 235.600,86.400 235.784,86.400 236.009 C 86.400 236.422,89.629 243.230,90.001 243.600 C 91.032 244.628,91.315 246.055,90.618 246.712 C 90.216 247.090,90.013 247.175,90.167 246.900 C 90.351 246.571,90.165 246.400,89.624 246.400 C 89.171 246.400,88.800 246.234,88.800 246.032 C 88.800 245.829,88.260 245.545,87.600 245.400 C 86.940 245.255,86.400 244.971,86.400 244.768 C 86.400 244.566,86.201 244.400,85.959 244.400 C 85.323 244.400,74.657 239.101,74.306 238.611 C 74.144 238.385,74.009 238.363,74.006 238.562 C 74.003 238.761,73.685 238.647,73.300 238.309 C 72.915 237.971,72.164 237.561,71.631 237.398 C 71.098 237.235,70.299 236.764,69.855 236.351 C 69.412 235.938,68.844 235.600,68.594 235.600 C 68.344 235.600,67.722 235.156,67.212 234.612 C 66.701 234.069,66.130 233.720,65.942 233.836 C 65.754 233.952,65.600 233.857,65.600 233.624 C 65.600 233.391,65.412 233.200,65.183 233.200 C 64.954 233.200,64.387 232.846,63.923 232.414 C 63.459 231.981,62.926 231.722,62.739 231.837 C 62.553 231.953,62.399 231.812,62.397 231.524 C 62.395 231.017,60.077 229.200,59.433 229.200 C 59.258 229.200,58.761 228.750,58.329 228.200 C 57.896 227.650,57.362 227.200,57.142 227.200 C 56.612 227.200,55.600 226.169,55.600 225.629 C 55.600 225.393,55.420 225.200,55.200 225.200 C 54.979 225.200,54.100 224.480,53.246 223.600 C 52.392 222.720,51.493 222.000,51.247 222.000 C 51.001 222.000,50.800 221.713,50.800 221.363 C 50.800 221.012,50.440 220.631,50.000 220.516 C 49.560 220.401,49.200 220.133,49.200 219.921 C 49.200 219.709,48.120 218.456,46.800 217.136 C 45.480 215.816,44.400 214.572,44.400 214.371 C 44.400 214.171,44.040 213.782,43.600 213.507 C 43.160 213.232,42.800 212.782,42.800 212.507 C 42.800 212.232,42.440 211.782,42.000 211.507 C 41.560 211.232,41.200 210.812,41.200 210.574 C 41.200 210.335,40.732 209.703,40.161 209.170 C 39.590 208.636,38.776 207.525,38.353 206.700 C 37.930 205.875,37.427 205.200,37.235 205.200 C 37.044 205.200,36.774 204.750,36.636 204.200 C 36.498 203.650,36.208 203.200,35.992 203.200 C 35.777 203.200,35.600 202.930,35.600 202.600 C 35.600 202.270,35.465 201.998,35.300 201.995 C 35.135 201.993,34.643 201.228,34.206 200.295 C 33.769 199.363,33.319 198.510,33.206 198.400 C 32.814 198.020,32.035 196.588,30.595 193.600 C 29.800 191.950,28.887 190.117,28.567 189.526 C 28.247 188.935,27.167 185.920,26.167 182.826 C 25.166 179.732,24.169 177.200,23.950 177.200 C 23.732 177.200,23.651 177.041,23.771 176.847 C 23.891 176.652,23.720 175.617,23.391 174.547 C 23.061 173.476,22.703 171.700,22.594 170.600 C 22.485 169.500,22.237 168.240,22.043 167.800 C 20.702 164.755,20.099 141.466,21.306 139.324 C 21.406 139.146,21.516 138.115,21.550 137.034 C 21.584 135.953,21.765 134.873,21.952 134.634 C 22.139 134.395,22.410 133.390,22.555 132.400 C 23.071 128.858,23.158 128.474,23.780 126.985 C 24.127 126.156,24.338 125.404,24.248 125.315 C 24.159 125.226,24.427 124.221,24.843 123.082 C 25.259 121.943,25.600 120.514,25.600 119.906 C 25.600 119.298,25.780 118.800,26.000 118.800 C 26.220 118.800,26.400 118.594,26.400 118.343 C 26.400 118.092,27.210 116.199,28.200 114.136 C 29.190 112.074,30.000 110.112,30.000 109.776 C 30.000 109.441,30.360 108.780,30.800 108.308 C 31.240 107.836,31.600 107.123,31.600 106.725 C 31.600 106.326,31.749 106.000,31.932 106.000 C 32.115 106.000,32.967 104.605,33.826 102.900 C 35.542 99.497,35.620 99.378,37.500 97.340 C 38.215 96.565,38.800 95.677,38.800 95.366 C 38.800 95.055,38.980 94.800,39.200 94.800 C 39.420 94.800,39.600 94.596,39.600 94.346 C 39.600 94.096,40.059 93.466,40.621 92.946 C 41.182 92.426,41.508 92.000,41.344 92.000 C 41.181 92.000,41.396 91.736,41.824 91.413 C 42.251 91.090,42.483 90.820,42.340 90.813 C 42.197 90.806,42.647 90.194,43.340 89.453 C 44.033 88.713,46.130 86.465,48.000 84.458 C 49.870 82.451,51.580 80.798,51.800 80.784 C 52.020 80.770,52.775 80.040,53.479 79.162 C 54.182 78.283,54.902 77.545,55.079 77.520 C 55.775 77.424,57.600 75.818,57.600 75.301 C 57.600 75.000,57.773 74.860,57.985 74.991 C 58.197 75.122,58.737 74.863,59.185 74.415 C 59.633 73.967,60.161 73.600,60.357 73.600 C 60.554 73.600,60.828 73.304,60.967 72.943 C 61.105 72.581,61.333 72.400,61.473 72.539 C 61.612 72.679,62.485 72.171,63.412 71.412 C 64.339 70.652,65.210 70.144,65.349 70.282 C 65.487 70.420,65.600 70.233,65.600 69.867 C 65.600 69.500,65.735 69.229,65.900 69.265 C 66.243 69.338,67.823 68.641,68.990 67.901 C 72.367 65.761,74.133 64.782,75.021 64.559 C 75.590 64.416,76.267 63.962,76.524 63.550 C 76.782 63.137,77.287 62.800,77.646 62.800 C 78.006 62.800,79.358 62.315,80.650 61.721 C 81.943 61.128,83.270 60.613,83.600 60.576 C 83.930 60.539,85.010 60.144,86.000 59.698 C 88.407 58.613,89.346 58.262,89.671 58.327 C 90.553 58.502,93.600 56.683,93.600 55.981 C 93.600 55.552,93.330 55.200,93.000 55.200 C 92.670 55.200,92.400 55.020,92.400 54.800 C 92.400 54.208,91.242 54.343,89.087 55.185 M285.200 148.744 C 285.200 148.933,284.168 149.195,282.906 149.325 C 281.645 149.455,280.550 149.750,280.473 149.981 C 280.396 150.211,280.078 150.400,279.767 150.400 C 279.455 150.400,279.200 150.580,279.200 150.800 C 279.200 151.020,278.885 151.201,278.500 151.201 C 277.647 151.203,274.400 153.900,274.400 154.607 C 274.400 154.886,274.130 155.218,273.800 155.345 C 273.470 155.471,273.200 155.941,273.200 156.387 C 273.200 156.834,273.020 157.200,272.800 157.200 C 272.580 157.200,272.400 157.650,272.400 158.200 C 272.400 158.750,272.220 159.200,272.000 159.200 C 271.760 159.200,271.600 160.792,271.600 163.176 C 271.600 165.396,271.777 167.262,272.000 167.400 C 272.220 167.536,272.400 168.072,272.400 168.590 C 272.400 169.109,272.535 169.593,272.700 169.667 C 272.865 169.740,273.344 170.476,273.764 171.302 C 274.185 172.129,274.598 172.736,274.682 172.651 C 274.767 172.567,275.354 173.016,275.987 173.649 C 276.620 174.282,277.422 174.800,277.769 174.800 C 278.116 174.800,278.400 174.980,278.400 175.200 C 278.400 175.420,278.745 175.600,279.167 175.600 C 279.588 175.600,279.993 175.775,280.067 175.989 C 280.140 176.203,281.505 176.499,283.100 176.646 C 284.695 176.794,286.000 177.069,286.000 177.257 C 286.000 177.446,287.350 177.600,289.000 177.600 C 290.650 177.600,292.000 177.757,292.000 177.949 C 292.000 178.141,292.700 178.410,293.556 178.547 C 296.652 179.042,295.790 183.600,292.601 183.600 C 292.071 183.600,291.178 183.810,290.615 184.066 C 289.867 184.407,289.353 184.415,288.697 184.095 C 288.203 183.854,287.125 183.546,286.300 183.411 C 285.475 183.275,284.800 182.992,284.800 182.782 C 284.800 182.572,284.556 182.400,284.258 182.400 C 283.960 182.400,283.548 181.815,283.343 181.100 L 282.971 179.800 277.028 179.689 L 271.084 179.578 271.310 182.878 C 271.435 184.694,271.731 186.244,271.968 186.323 C 272.206 186.402,272.400 186.722,272.400 187.033 C 272.400 187.345,272.580 187.600,272.800 187.600 C 273.020 187.600,273.200 187.853,273.200 188.163 C 273.200 188.688,276.514 192.400,276.982 192.400 C 277.505 192.400,280.400 193.818,280.400 194.074 C 280.400 194.232,281.480 194.482,282.800 194.632 C 284.120 194.781,285.200 195.060,285.200 195.252 C 285.200 195.443,287.090 195.600,289.400 195.600 C 291.710 195.600,293.600 195.445,293.600 195.256 C 293.600 195.067,294.616 194.807,295.857 194.679 C 297.098 194.551,298.304 194.256,298.537 194.023 C 298.770 193.790,299.284 193.600,299.680 193.600 C 300.076 193.600,300.400 193.420,300.400 193.200 C 300.400 192.980,300.651 192.800,300.958 192.800 C 301.264 192.800,302.093 192.260,302.800 191.600 C 303.507 190.940,304.246 190.400,304.442 190.400 C 304.639 190.400,304.800 190.052,304.800 189.627 C 304.800 189.202,305.160 188.740,305.600 188.600 C 306.040 188.460,306.406 188.043,306.413 187.673 C 306.420 187.303,306.690 186.651,307.013 186.224 C 307.336 185.796,307.600 184.617,307.600 183.604 C 307.600 182.590,307.796 181.564,308.035 181.325 C 308.348 181.012,308.348 180.815,308.035 180.622 C 307.796 180.474,307.600 179.446,307.600 178.337 C 307.600 175.458,304.580 170.400,302.861 170.400 C 302.608 170.400,302.400 170.228,302.400 170.018 C 302.400 169.808,301.768 169.518,300.996 169.373 C 300.223 169.228,299.493 168.950,299.372 168.755 C 299.251 168.560,298.623 168.400,297.976 168.400 C 297.329 168.400,296.800 168.237,296.800 168.038 C 296.800 167.840,294.907 167.548,292.594 167.390 C 290.280 167.233,288.290 166.945,288.170 166.752 C 288.051 166.558,287.423 166.400,286.776 166.400 C 286.129 166.400,285.600 166.220,285.600 166.000 C 285.600 165.780,285.395 165.600,285.144 165.600 C 284.893 165.600,284.449 165.285,284.157 164.900 C 283.545 164.094,283.420 162.400,283.973 162.400 C 284.178 162.400,284.463 162.033,284.605 161.584 C 284.760 161.097,285.340 160.672,286.040 160.532 C 286.687 160.403,287.314 160.140,287.432 159.948 C 287.732 159.462,291.200 159.510,291.200 160.000 C 291.200 160.220,291.610 160.400,292.111 160.400 C 293.185 160.400,294.400 161.677,294.400 162.805 C 294.400 163.563,294.678 163.600,300.400 163.600 L 306.400 163.600 306.400 161.000 C 306.400 159.570,306.257 158.400,306.082 158.400 C 305.907 158.400,305.445 157.627,305.056 156.683 C 304.118 154.408,301.947 152.164,299.658 151.105 C 298.636 150.632,297.687 150.080,297.549 149.879 C 297.412 149.678,296.463 149.419,295.440 149.303 C 294.418 149.188,293.485 148.938,293.367 148.747 C 293.088 148.296,285.200 148.293,285.200 148.744 M119.600 154.800 L 119.600 160.400 125.000 160.400 L 130.400 160.400 130.400 177.400 L 130.400 194.400 136.800 194.400 L 143.200 194.400 143.200 177.400 L 143.200 160.400 148.400 160.400 L 153.600 160.400 153.600 154.800 L 153.600 149.200 136.600 149.200 L 119.600 149.200 119.600 154.800 M159.600 171.766 L 159.600 194.400 166.000 194.400 L 172.400 194.400 172.400 188.000 L 172.400 181.600 174.700 181.611 L 177.000 181.623 178.300 183.771 C 179.015 184.953,179.600 186.118,179.600 186.360 C 179.600 186.602,179.735 186.801,179.900 186.803 C 180.302 186.806,181.600 189.119,181.600 189.832 C 181.600 190.145,181.780 190.400,182.000 190.400 C 182.220 190.400,182.400 190.670,182.400 191.000 C 182.400 191.330,182.580 191.600,182.800 191.600 C 183.020 191.600,183.200 191.842,183.200 192.139 C 183.200 194.096,184.323 194.400,191.547 194.400 L 198.400 194.400 198.400 192.800 C 198.400 191.920,198.265 191.199,198.100 191.198 C 197.935 191.197,197.011 189.847,196.047 188.198 C 195.083 186.549,194.138 185.200,193.947 185.200 C 193.756 185.200,193.600 184.924,193.600 184.586 C 193.600 184.009,192.522 182.039,191.965 181.600 C 191.674 181.370,190.400 178.948,190.400 178.623 C 190.400 178.504,190.902 177.910,191.515 177.303 C 193.543 175.297,195.600 171.509,195.600 169.780 C 195.600 169.267,195.780 168.736,196.000 168.600 C 196.220 168.464,196.400 167.013,196.400 165.376 C 196.400 163.659,196.231 162.400,196.000 162.400 C 195.780 162.400,195.600 161.864,195.600 161.208 C 195.600 159.852,194.547 157.002,193.622 155.856 C 191.570 153.314,190.654 152.400,190.159 152.400 C 189.851 152.400,189.600 152.232,189.600 152.027 C 189.600 151.822,189.195 151.528,188.700 151.373 C 188.205 151.219,187.710 150.981,187.600 150.846 C 186.523 149.520,185.368 149.400,172.500 149.266 L 159.600 149.133 159.600 171.766 M200.400 154.167 C 200.400 160.544,200.334 160.400,203.243 160.400 L 205.600 160.400 205.600 172.000 L 205.600 183.600 203.000 183.600 L 200.400 183.600 200.400 189.000 L 200.400 194.400 212.000 194.400 L 223.600 194.400 223.600 189.000 L 223.600 183.600 221.000 183.600 L 218.400 183.600 218.400 172.000 L 218.400 160.400 221.000 160.400 L 223.600 160.400 223.600 154.800 L 223.600 149.200 212.000 149.200 L 200.400 149.200 200.400 154.167 M230.400 171.810 L 230.400 194.420 236.642 194.310 L 242.885 194.200 242.824 188.533 L 242.763 182.867 249.682 182.733 C 256.476 182.602,256.629 182.580,258.193 181.500 C 259.069 180.895,259.924 180.400,260.092 180.400 C 260.558 180.400,263.219 177.795,263.834 176.736 C 264.319 175.903,264.655 175.197,265.993 172.200 C 267.085 169.756,267.089 160.400,265.999 160.400 C 265.836 160.400,265.587 159.680,265.446 158.800 C 265.306 157.920,265.013 157.200,264.795 157.200 C 264.578 157.200,264.397 156.975,264.394 156.700 C 264.385 155.912,260.325 151.872,258.789 151.122 C 255.084 149.315,254.076 149.200,241.986 149.200 L 230.400 149.200 230.400 171.810 M182.297 161.790 C 183.604 163.201,183.918 167.350,182.800 168.445 C 181.039 170.170,180.275 170.400,176.311 170.400 L 172.400 170.400 172.400 165.365 L 172.400 160.329 176.797 160.465 C 181.086 160.597,181.221 160.629,182.297 161.790 M252.454 161.200 C 254.044 162.806,255.245 168.400,254.000 168.400 C 253.780 168.400,253.600 168.662,253.600 168.982 C 253.600 170.849,251.760 171.600,247.182 171.600 L 242.800 171.600 242.800 165.966 L 242.800 160.331 247.330 160.466 C 250.687 160.565,252.013 160.755,252.454 161.200 " stroke="none" fill="#0494fc" fill-rule="evenodd"></path><path id="path1" d="M47.433 94.747 C 47.315 94.938,46.365 95.190,45.322 95.308 C 44.279 95.425,43.360 95.719,43.280 95.961 C 43.199 96.202,42.788 96.400,42.367 96.400 C 41.945 96.400,41.600 96.560,41.600 96.757 C 41.600 96.953,41.195 97.218,40.700 97.347 C 39.499 97.658,37.200 99.674,37.200 100.416 C 37.200 100.741,36.842 101.231,36.405 101.504 C 35.927 101.802,35.507 102.640,35.354 103.600 C 35.213 104.480,34.941 105.200,34.749 105.200 C 34.557 105.200,34.400 107.090,34.400 109.400 C 34.400 111.710,34.556 113.600,34.748 113.600 C 34.939 113.600,35.195 114.211,35.316 114.958 C 35.647 117.001,38.972 120.800,40.428 120.800 C 40.853 120.800,41.200 120.980,41.200 121.200 C 41.200 121.420,41.455 121.600,41.767 121.600 C 42.078 121.600,42.393 121.775,42.467 121.989 C 42.540 122.203,43.905 122.499,45.500 122.646 C 47.095 122.794,48.400 123.069,48.400 123.257 C 48.400 123.446,49.750 123.600,51.400 123.600 C 53.050 123.600,54.400 123.757,54.400 123.949 C 54.400 124.141,55.075 124.406,55.900 124.538 C 59.108 125.053,58.874 128.862,55.600 129.409 C 54.830 129.538,53.887 129.814,53.505 130.022 C 52.635 130.496,51.600 130.512,51.600 130.052 C 51.600 129.861,50.751 129.608,49.713 129.491 C 48.675 129.374,47.760 129.081,47.680 128.839 C 47.599 128.598,47.278 128.400,46.967 128.400 C 46.655 128.400,46.400 128.130,46.400 127.800 C 46.400 127.470,46.220 127.200,46.000 127.200 C 45.780 127.200,45.600 126.840,45.600 126.400 C 45.600 125.636,45.333 125.600,39.600 125.600 L 33.600 125.600 33.600 127.976 C 33.600 129.283,33.780 130.464,34.000 130.600 C 34.220 130.736,34.400 131.197,34.400 131.624 C 34.400 132.051,34.560 132.400,34.757 132.400 C 34.953 132.400,35.230 132.866,35.373 133.436 C 35.842 135.302,40.880 139.600,42.599 139.600 C 42.893 139.600,43.194 139.783,43.269 140.007 C 43.344 140.231,44.349 140.526,45.502 140.663 C 46.656 140.800,47.600 141.066,47.600 141.256 C 47.600 141.445,49.580 141.600,52.000 141.600 C 54.420 141.600,56.400 141.443,56.400 141.251 C 56.400 141.059,57.270 140.818,58.334 140.716 C 60.623 140.496,65.119 138.480,65.419 137.540 C 65.534 137.177,66.072 136.768,66.614 136.632 C 67.190 136.488,67.600 136.095,67.600 135.689 C 67.600 135.306,67.937 134.782,68.350 134.524 C 68.762 134.267,69.226 133.550,69.381 132.932 C 69.536 132.314,69.852 131.692,70.082 131.549 C 71.040 130.957,70.547 122.720,69.428 120.615 C 68.094 118.106,65.532 115.751,63.777 115.422 C 63.020 115.280,62.400 114.992,62.400 114.782 C 62.400 114.572,61.770 114.400,61.000 114.400 C 60.230 114.400,59.600 114.235,59.600 114.034 C 59.600 113.832,57.620 113.539,55.200 113.382 C 52.780 113.225,50.800 112.940,50.800 112.749 C 50.800 112.557,50.260 112.400,49.600 112.400 C 48.940 112.400,48.400 112.220,48.400 112.000 C 48.400 111.780,48.136 111.600,47.814 111.600 C 47.144 111.600,46.400 110.401,46.400 109.322 C 46.400 108.336,48.250 106.400,49.193 106.400 C 49.611 106.400,50.064 106.220,50.200 106.000 C 50.336 105.780,51.146 105.600,52.000 105.600 C 52.854 105.600,53.664 105.780,53.800 106.000 C 53.936 106.220,54.369 106.400,54.762 106.400 C 55.796 106.400,57.200 107.752,57.200 108.747 C 57.200 109.580,57.342 109.600,63.200 109.600 L 69.200 109.600 69.200 107.433 C 69.200 103.407,65.892 98.518,62.100 96.942 C 61.165 96.554,60.400 96.099,60.400 95.932 C 60.400 95.764,59.496 95.508,58.391 95.361 C 57.286 95.214,56.285 94.938,56.167 94.747 C 55.887 94.294,47.713 94.294,47.433 94.747 M77.600 117.800 L 77.600 140.400 84.000 140.400 L 90.400 140.400 90.400 132.000 L 90.400 123.600 91.900 123.613 C 93.733 123.630,95.010 124.623,95.384 126.325 C 95.538 127.026,95.829 127.600,96.032 127.600 C 96.234 127.600,96.400 127.870,96.400 128.200 C 96.400 128.530,96.577 128.800,96.792 128.800 C 97.008 128.800,97.298 129.250,97.436 129.800 C 97.574 130.350,97.847 130.800,98.043 130.800 C 98.240 130.800,98.400 131.160,98.400 131.600 C 98.400 132.040,98.560 132.400,98.757 132.400 C 98.953 132.400,99.226 132.850,99.364 133.400 C 99.502 133.950,99.792 134.400,100.008 134.400 C 100.223 134.400,100.400 134.670,100.400 135.000 C 100.400 135.330,100.566 135.600,100.768 135.600 C 100.971 135.600,101.251 136.121,101.391 136.759 C 101.531 137.396,101.995 138.234,102.423 138.621 C 102.850 139.007,103.200 139.566,103.200 139.862 C 103.200 140.292,104.603 140.400,110.200 140.400 L 117.200 140.400 117.200 138.995 C 117.200 137.779,116.664 136.264,116.000 135.600 C 115.596 135.196,114.770 133.780,114.542 133.100 C 114.412 132.715,114.167 132.400,113.997 132.400 C 113.826 132.400,113.574 131.950,113.436 131.400 C 113.298 130.850,113.008 130.400,112.792 130.400 C 112.577 130.400,112.400 130.130,112.400 129.800 C 112.400 129.470,112.223 129.200,112.008 129.200 C 111.792 129.200,111.502 128.750,111.364 128.200 C 111.226 127.650,110.974 127.200,110.803 127.200 C 110.633 127.200,110.388 126.885,110.258 126.500 C 110.129 126.115,109.793 125.451,109.512 125.023 C 109.230 124.596,108.385 123.246,107.634 122.023 C 106.883 120.801,106.102 119.689,105.898 119.554 C 105.695 119.419,106.175 118.699,106.966 117.954 C 107.757 117.209,108.628 116.384,108.902 116.119 C 109.850 115.203,110.400 114.432,110.400 114.017 C 110.400 113.788,110.568 113.600,110.773 113.600 C 110.978 113.600,111.263 113.195,111.405 112.700 C 111.548 112.205,112.042 110.990,112.504 110.000 C 113.217 108.470,113.369 107.225,113.519 101.700 L 113.694 95.200 107.447 95.200 L 101.200 95.200 101.200 98.600 C 101.200 100.600,101.035 102.000,100.800 102.000 C 100.580 102.000,100.400 102.810,100.400 103.800 C 100.400 104.790,100.243 105.600,100.050 105.600 C 99.858 105.600,99.592 106.142,99.459 106.805 C 99.229 107.955,97.162 110.400,96.420 110.400 C 96.225 110.400,96.001 110.598,95.920 110.839 C 95.840 111.081,94.565 111.375,93.087 111.494 L 90.400 111.710 90.400 103.455 L 90.400 95.200 84.000 95.200 L 77.600 95.200 77.600 117.800 M117.600 96.902 C 117.600 98.154,117.814 98.778,118.385 99.189 C 118.817 99.501,119.283 100.269,119.421 100.897 C 119.559 101.525,120.016 102.253,120.436 102.515 C 120.856 102.778,121.200 103.287,121.200 103.647 C 121.200 104.007,121.470 104.526,121.800 104.800 C 122.130 105.074,122.400 105.546,122.400 105.849 C 122.400 106.152,122.560 106.400,122.757 106.400 C 122.953 106.400,123.226 106.850,123.364 107.400 C 123.502 107.950,123.792 108.400,124.008 108.400 C 124.223 108.400,124.400 108.670,124.400 109.000 C 124.400 109.330,124.560 109.600,124.757 109.600 C 124.953 109.600,125.226 110.050,125.364 110.600 C 125.502 111.150,125.792 111.600,126.008 111.600 C 126.223 111.600,126.400 111.870,126.400 112.200 C 126.400 112.530,126.568 112.800,126.773 112.800 C 126.978 112.800,127.272 113.205,127.427 113.700 C 127.581 114.195,127.819 114.690,127.954 114.800 C 128.313 115.092,129.142 116.461,129.595 117.510 C 129.811 118.011,130.261 118.525,130.594 118.653 C 130.927 118.781,131.200 119.192,131.200 119.566 C 131.200 119.941,131.464 120.596,131.787 121.024 C 132.264 121.653,132.377 123.558,132.387 131.110 L 132.400 140.420 138.700 140.310 L 145.000 140.200 145.107 130.543 C 145.195 122.591,145.319 120.799,145.807 120.394 C 146.133 120.124,146.400 119.654,146.400 119.351 C 146.400 119.048,146.560 118.800,146.757 118.800 C 146.953 118.800,147.226 118.350,147.364 117.800 C 147.502 117.250,147.792 116.800,148.008 116.800 C 148.223 116.800,148.400 116.530,148.400 116.200 C 148.400 115.870,148.560 115.600,148.757 115.600 C 148.953 115.600,149.226 115.150,149.364 114.600 C 149.502 114.050,149.792 113.600,150.008 113.600 C 150.223 113.600,150.400 113.330,150.400 113.000 C 150.400 112.670,150.577 112.400,150.792 112.400 C 151.008 112.400,151.298 111.950,151.436 111.400 C 151.574 110.850,151.828 110.400,152.000 110.400 C 152.172 110.400,152.426 109.950,152.564 109.400 C 152.702 108.850,152.992 108.400,153.208 108.400 C 153.423 108.400,153.600 108.040,153.600 107.600 C 153.600 107.160,153.756 106.800,153.947 106.800 C 154.138 106.800,155.083 105.451,156.047 103.802 C 157.011 102.153,157.935 100.803,158.100 100.802 C 158.265 100.801,158.400 100.545,158.400 100.233 C 158.400 99.922,158.603 99.599,158.851 99.516 C 159.099 99.434,159.392 98.429,159.502 97.283 L 159.702 95.200 153.151 95.206 C 145.857 95.213,146.094 95.146,144.994 97.495 C 144.557 98.428,144.079 99.193,143.932 99.195 C 143.784 99.198,143.545 99.740,143.400 100.400 C 143.255 101.060,142.971 101.600,142.768 101.600 C 142.566 101.600,142.400 101.960,142.400 102.400 C 142.400 102.840,142.223 103.200,142.008 103.200 C 141.792 103.200,141.502 103.650,141.364 104.200 C 141.226 104.750,140.953 105.200,140.757 105.200 C 140.560 105.200,140.400 105.470,140.400 105.800 C 140.400 106.130,140.228 106.400,140.018 106.400 C 139.808 106.400,139.518 107.030,139.374 107.800 C 139.229 108.570,139.028 109.200,138.927 109.200 C 138.643 109.200,137.600 108.091,137.600 107.789 C 137.600 107.437,136.305 104.657,136.021 104.400 C 135.899 104.290,135.457 103.525,135.037 102.700 C 134.617 101.875,134.142 101.200,133.982 101.200 C 133.821 101.200,133.571 100.570,133.426 99.800 C 133.282 99.030,132.992 98.400,132.782 98.400 C 132.572 98.400,132.400 98.130,132.400 97.800 C 132.400 97.470,132.233 97.200,132.028 97.200 C 131.823 97.200,131.598 96.795,131.528 96.300 C 131.402 95.411,131.313 95.399,124.500 95.291 L 117.600 95.181 117.600 96.902 M159.600 220.000 C 159.600 220.440,159.780 220.800,160.000 220.800 C 160.220 220.800,160.400 221.141,160.400 221.557 C 160.400 221.974,160.670 222.418,161.000 222.545 C 161.330 222.671,161.600 223.128,161.600 223.560 C 161.600 223.995,161.958 224.460,162.400 224.600 C 163.105 224.824,163.200 225.205,163.200 227.827 L 163.200 230.800 165.155 230.800 L 167.110 230.800 167.264 228.062 C 167.370 226.199,167.633 225.110,168.088 224.655 C 168.456 224.287,169.159 223.269,169.652 222.393 C 170.144 221.517,170.694 220.800,170.874 220.800 C 171.053 220.800,171.200 220.440,171.200 220.000 C 171.200 219.310,170.933 219.200,169.261 219.200 C 167.338 219.200,165.600 220.118,165.600 221.134 C 165.600 221.377,165.330 221.471,165.000 221.345 C 164.670 221.218,164.400 220.793,164.400 220.400 C 164.400 219.507,163.624 219.200,161.367 219.200 C 159.867 219.200,159.600 219.321,159.600 220.000 M171.828 220.547 C 171.043 221.288,170.400 222.178,170.400 222.524 C 170.400 222.870,170.220 223.264,170.000 223.400 C 169.780 223.536,169.600 224.357,169.600 225.224 C 169.600 226.091,169.780 226.800,170.000 226.800 C 170.220 226.800,170.400 227.168,170.400 227.617 C 170.400 228.384,170.628 228.772,171.929 230.214 C 172.219 230.536,172.894 230.800,173.429 230.800 C 173.963 230.800,174.400 230.980,174.400 231.200 C 174.400 231.420,175.120 231.600,176.000 231.600 C 176.880 231.600,177.600 231.420,177.600 231.200 C 177.600 230.980,178.048 230.800,178.597 230.800 C 179.182 230.800,180.066 230.305,180.740 229.600 C 182.064 228.215,182.400 228.117,182.400 229.120 C 182.400 230.106,183.177 230.800,184.280 230.800 C 184.786 230.800,185.200 230.980,185.200 231.200 C 185.200 231.420,186.010 231.600,187.000 231.600 C 187.990 231.600,188.800 231.420,188.800 231.200 C 188.800 230.980,189.150 230.800,189.577 230.800 C 190.005 230.800,190.635 230.400,190.977 229.911 L 191.600 229.022 191.600 229.911 C 191.600 230.711,191.800 230.800,193.600 230.800 C 195.467 230.800,195.600 230.733,195.600 229.800 C 195.600 229.250,195.703 228.800,195.829 228.800 C 196.221 228.800,197.200 229.922,197.200 230.371 C 197.200 230.632,198.218 230.800,199.800 230.800 C 202.849 230.800,202.913 230.651,200.800 228.495 C 199.331 226.997,198.966 225.600,200.043 225.600 C 200.239 225.600,200.400 224.507,200.400 223.171 C 200.400 219.525,200.221 219.426,193.330 219.270 L 187.600 219.141 187.600 223.370 C 187.600 225.697,187.435 227.600,187.233 227.600 C 185.769 227.600,185.600 227.139,185.600 223.157 L 185.600 219.200 183.625 219.200 C 181.731 219.200,181.646 219.248,181.525 220.387 L 181.400 221.574 180.046 220.387 C 177.942 218.543,173.870 218.622,171.828 220.547 M207.100 219.632 C 206.715 219.856,206.400 220.301,206.400 220.620 C 206.400 220.939,206.220 221.200,206.000 221.200 C 204.104 221.200,206.502 226.109,208.663 226.651 C 210.313 227.066,209.667 227.512,207.500 227.455 L 205.400 227.400 205.276 228.903 C 205.179 230.072,205.313 230.457,205.876 230.632 C 206.274 230.757,206.913 231.025,207.295 231.229 C 208.281 231.756,211.503 231.690,211.687 231.140 C 211.785 230.845,212.785 230.706,214.474 230.752 C 216.984 230.821,217.119 230.777,217.361 229.812 C 217.775 228.164,221.200 228.663,221.200 230.371 C 221.200 230.619,222.044 230.800,223.200 230.800 C 224.469 230.800,225.200 230.628,225.200 230.328 C 225.200 229.512,224.254 227.200,223.920 227.200 C 223.744 227.200,223.599 226.795,223.598 226.300 C 223.596 225.805,223.326 224.884,222.998 224.254 C 222.669 223.624,222.400 222.859,222.400 222.554 C 222.400 222.249,222.240 222.000,222.045 222.000 C 221.849 222.000,221.571 221.370,221.426 220.600 C 220.903 217.810,216.400 218.956,216.400 221.880 C 216.400 222.166,216.236 222.400,216.035 222.400 C 215.834 222.400,215.551 223.106,215.405 223.969 C 215.066 225.977,214.397 226.212,213.059 224.794 C 212.471 224.171,211.452 223.543,210.795 223.399 C 208.927 222.989,209.393 222.395,211.500 222.503 C 213.493 222.605,214.648 220.511,213.130 219.548 C 212.388 219.078,207.946 219.139,207.100 219.632 M223.200 220.800 C 223.200 222.311,223.267 222.400,224.400 222.400 L 225.600 222.400 225.600 226.600 L 225.600 230.800 227.600 230.800 L 229.600 230.800 229.600 226.600 L 229.600 222.400 230.600 222.400 L 231.600 222.400 231.600 226.616 L 231.600 230.832 234.400 230.736 C 236.166 230.675,237.377 230.817,237.680 231.120 C 238.258 231.698,241.600 231.767,241.600 231.200 C 241.600 230.980,242.014 230.800,242.520 230.800 C 243.026 230.800,243.656 230.584,243.920 230.320 C 244.293 229.947,244.400 229.947,244.400 230.320 C 244.400 230.629,245.111 230.800,246.400 230.800 L 248.400 230.800 248.400 228.800 L 248.400 226.800 250.032 226.800 L 251.664 226.800 251.383 228.100 C 251.229 228.815,250.945 229.460,250.751 229.533 C 249.459 230.024,250.593 230.800,252.600 230.800 C 254.680 230.800,254.800 230.745,254.800 229.800 C 254.800 228.881,254.947 228.800,256.600 228.800 C 258.099 228.800,258.400 228.926,258.400 229.557 C 258.400 230.497,259.151 230.800,261.476 230.800 C 262.850 230.800,263.235 230.667,263.074 230.248 C 262.934 229.883,263.466 230.018,264.652 230.648 C 266.455 231.606,269.600 231.957,269.600 231.200 C 269.600 230.980,270.031 230.800,270.557 230.800 C 271.729 230.800,271.981 230.200,271.525 228.498 L 271.176 227.196 269.054 227.445 C 267.073 227.678,266.875 227.621,266.059 226.584 C 264.218 224.243,265.697 222.817,270.189 222.602 L 273.600 222.440 273.600 226.620 L 273.600 230.800 275.600 230.800 L 277.600 230.800 277.600 226.600 L 277.600 222.400 278.600 222.400 L 279.600 222.400 279.600 226.600 L 279.600 230.800 281.600 230.800 C 283.556 230.800,283.600 230.773,283.600 229.600 C 283.600 228.940,283.780 228.400,284.000 228.400 C 284.220 228.400,284.400 228.604,284.400 228.853 C 284.400 229.525,286.012 230.800,286.861 230.800 C 287.268 230.800,287.600 230.980,287.600 231.200 C 287.600 231.420,288.500 231.600,289.600 231.600 C 290.700 231.600,291.600 231.420,291.600 231.200 C 291.600 230.980,291.896 230.800,292.257 230.800 C 292.933 230.800,294.922 228.952,295.315 227.959 C 295.437 227.652,295.551 228.165,295.568 229.100 L 295.600 230.800 297.400 230.800 L 299.200 230.800 299.232 228.500 C 299.249 227.235,299.367 226.470,299.494 226.800 C 299.621 227.130,300.057 227.691,300.463 228.047 C 300.868 228.403,301.200 228.885,301.200 229.118 C 301.200 230.116,302.513 230.800,304.429 230.800 L 306.400 230.800 306.400 225.000 L 306.400 219.200 304.420 219.200 L 302.440 219.200 302.320 221.500 L 302.200 223.800 301.226 222.100 C 300.691 221.165,300.106 220.400,299.926 220.400 C 299.747 220.400,299.600 220.130,299.600 219.800 C 299.600 219.347,299.111 219.200,297.600 219.200 L 295.600 219.200 295.598 221.100 L 295.595 223.000 295.016 221.890 C 293.832 219.620,293.341 219.400,289.462 219.400 C 286.859 219.400,285.819 219.544,285.693 219.922 C 285.597 220.210,285.132 220.807,284.659 221.250 L 283.800 222.054 283.674 220.603 L 283.549 219.152 273.707 219.276 C 266.050 219.372,263.827 219.516,263.692 219.922 C 263.597 220.210,263.133 220.804,262.661 221.243 C 262.190 221.682,261.595 222.707,261.340 223.521 C 260.917 224.868,260.850 224.920,260.591 224.100 C 260.435 223.605,260.171 223.200,260.006 223.200 C 259.840 223.200,259.600 222.554,259.472 221.764 C 258.995 218.825,254.400 217.809,254.400 220.643 C 254.400 221.169,254.231 221.600,254.025 221.600 C 253.818 221.600,253.528 222.410,253.379 223.400 C 253.093 225.306,252.631 225.728,252.284 224.400 C 252.113 223.746,251.738 223.600,250.237 223.600 C 248.871 223.600,248.400 223.446,248.400 223.000 C 248.400 222.547,248.889 222.400,250.400 222.400 L 252.400 222.400 252.400 220.809 L 252.400 219.218 245.225 219.241 C 236.794 219.267,236.400 219.414,236.400 222.544 C 236.400 224.704,237.463 226.218,239.255 226.612 C 241.230 227.046,240.504 227.542,238.001 227.470 L 235.602 227.400 235.601 223.300 L 235.600 219.200 229.400 219.200 L 223.200 219.200 223.200 220.800 M310.400 224.991 L 310.400 230.783 313.279 230.730 C 315.143 230.695,316.213 230.839,316.313 231.138 C 316.502 231.706,320.400 231.765,320.400 231.200 C 320.400 230.980,320.663 230.800,320.984 230.800 C 324.592 230.800,323.288 224.340,319.488 223.386 C 317.853 222.976,318.180 222.358,319.900 222.609 C 321.671 222.867,322.184 222.578,322.542 221.116 C 322.894 219.677,321.976 219.200,318.855 219.200 C 316.500 219.200,316.311 219.285,314.900 220.969 C 313.570 222.557,315.084 225.801,317.515 226.573 C 319.091 227.073,318.458 227.593,316.585 227.336 C 315.090 227.131,314.670 227.221,314.198 227.844 C 313.691 228.514,313.624 228.065,313.613 223.900 L 313.600 219.200 312.000 219.200 L 310.400 219.200 310.400 224.991 M329.200 219.496 C 328.073 219.934,326.413 222.198,326.339 223.400 C 326.215 225.401,326.465 228.188,326.788 228.400 C 326.955 228.510,327.217 228.999,327.369 229.486 C 327.558 230.092,328.080 230.454,329.023 230.631 C 329.780 230.773,330.400 231.049,330.400 231.245 C 330.400 231.849,333.404 231.636,334.839 230.930 C 336.381 230.170,337.600 228.938,337.600 228.139 C 337.600 227.842,337.780 227.600,338.000 227.600 C 338.220 227.600,338.400 227.958,338.400 228.395 C 338.400 229.435,339.586 230.800,340.489 230.800 C 340.880 230.800,341.200 230.980,341.200 231.200 C 341.200 232.792,346.927 230.869,347.663 229.029 L 348.155 227.800 348.302 229.300 C 348.508 231.410,351.600 231.692,351.600 229.600 C 351.600 228.940,351.780 228.400,352.000 228.400 C 352.220 228.400,352.400 228.578,352.400 228.795 C 352.400 230.026,353.824 230.800,356.089 230.800 C 358.372 230.800,359.331 230.043,357.794 229.453 C 357.461 229.325,357.015 228.766,356.804 228.210 C 356.593 227.655,356.235 227.200,356.010 227.200 C 355.396 227.200,355.516 226.027,356.200 225.343 C 357.201 224.342,356.979 221.343,355.818 220.182 C 354.876 219.240,354.625 219.200,349.618 219.200 L 344.400 219.200 344.400 223.157 C 344.400 226.397,344.285 227.158,343.767 227.357 C 342.716 227.761,342.400 227.638,342.400 226.824 C 342.400 226.397,342.220 225.936,342.000 225.800 C 341.780 225.664,341.600 224.123,341.600 222.376 L 341.600 219.200 340.022 219.200 L 338.444 219.200 338.312 221.100 C 338.186 222.910,338.158 222.951,337.720 221.953 C 336.681 219.589,332.251 218.311,329.200 219.496 M244.400 223.400 C 244.400 224.390,244.220 225.200,244.000 225.200 C 243.780 225.200,243.600 225.033,243.600 224.829 C 243.600 224.625,242.880 224.140,242.000 223.752 C 241.120 223.364,240.400 222.918,240.400 222.761 C 240.400 222.604,241.120 222.573,242.000 222.691 C 243.301 222.865,243.600 222.783,243.600 222.253 C 243.600 221.894,243.780 221.600,244.000 221.600 C 244.220 221.600,244.400 222.410,244.400 223.400 M177.233 222.800 C 177.435 222.800,177.600 223.145,177.600 223.567 C 177.600 223.988,177.816 224.405,178.080 224.493 C 178.947 224.782,177.311 227.601,176.281 227.594 C 174.808 227.584,172.736 224.892,173.900 224.501 C 174.175 224.409,174.400 224.087,174.400 223.787 C 174.400 223.102,175.622 222.358,176.333 222.611 C 176.626 222.715,177.031 222.800,177.233 222.800 M196.400 223.000 C 196.400 223.330,196.220 223.600,196.000 223.600 C 195.780 223.600,195.600 223.330,195.600 223.000 C 195.600 222.670,195.780 222.400,196.000 222.400 C 196.220 222.400,196.400 222.670,196.400 223.000 M291.428 224.210 C 291.900 226.726,290.783 227.984,288.571 227.428 C 287.740 227.220,287.600 226.948,287.600 225.539 C 287.600 222.479,290.889 221.337,291.428 224.210 M333.886 223.558 C 335.417 225.569,333.394 228.263,331.033 227.357 C 330.161 227.023,330.185 224.100,331.067 223.126 C 331.813 222.301,333.076 222.495,333.886 223.558 M352.567 222.643 C 353.461 222.986,353.354 223.600,352.400 223.600 C 351.956 223.600,351.600 223.333,351.600 223.000 C 351.600 222.327,351.673 222.300,352.567 222.643 M226.400 241.000 L 226.400 246.800 228.400 246.800 L 230.400 246.800 230.400 244.800 L 230.400 242.800 232.124 242.800 C 233.882 242.800,234.940 242.271,235.322 241.200 C 235.440 240.870,235.551 241.995,235.568 243.700 L 235.600 246.800 237.400 246.800 C 239.158 246.800,239.201 246.769,239.232 245.500 C 239.249 244.785,239.367 244.470,239.494 244.800 C 240.118 246.421,241.211 246.800,245.261 246.800 L 249.200 246.800 249.232 245.500 C 249.249 244.785,249.367 244.470,249.494 244.800 C 249.878 245.798,251.265 246.800,252.261 246.800 C 252.778 246.800,253.200 246.980,253.200 247.200 C 253.200 247.420,254.010 247.600,255.000 247.600 C 255.990 247.600,256.800 247.443,256.800 247.250 C 256.800 247.058,257.326 246.795,257.968 246.666 C 258.661 246.528,259.241 246.101,259.395 245.616 C 259.537 245.167,259.801 244.800,259.980 244.800 C 260.160 244.800,260.449 244.395,260.622 243.900 C 260.876 243.178,260.968 243.376,261.091 244.900 L 261.244 246.800 262.822 246.800 C 264.309 246.800,264.400 246.731,264.400 245.600 C 264.400 244.940,264.580 244.400,264.800 244.400 C 265.020 244.400,265.200 244.657,265.200 244.971 C 265.200 246.397,266.353 246.800,270.429 246.800 L 274.400 246.800 274.400 242.600 C 274.400 239.133,274.505 238.400,275.000 238.400 C 275.495 238.400,275.600 239.133,275.600 242.600 L 275.600 246.800 277.600 246.800 L 279.600 246.800 279.600 242.600 L 279.600 238.400 280.767 238.400 C 282.445 238.400,283.200 238.780,283.200 239.623 C 283.200 240.028,283.461 240.506,283.780 240.685 C 284.179 240.908,284.397 241.878,284.480 243.804 L 284.600 246.600 286.500 246.722 L 288.400 246.844 288.400 244.614 C 288.400 242.437,289.393 240.150,291.063 238.480 C 291.358 238.185,291.600 237.686,291.600 237.371 C 291.600 237.057,291.780 236.800,292.000 236.800 C 292.220 236.800,292.400 236.440,292.400 236.000 C 292.400 235.308,292.133 235.200,290.429 235.200 C 288.416 235.200,287.200 235.889,287.200 237.029 C 287.200 238.152,285.776 237.440,285.541 236.200 C 285.397 235.439,285.028 235.395,277.895 235.291 L 270.400 235.182 270.400 240.191 C 270.400 244.886,270.012 246.497,269.436 244.200 C 269.298 243.650,269.008 243.200,268.792 243.200 C 268.193 243.200,268.325 242.018,269.000 241.343 C 270.001 240.342,269.779 237.343,268.618 236.182 C 267.738 235.302,267.302 235.200,264.418 235.200 L 261.200 235.200 261.199 237.300 L 261.197 239.400 260.369 238.042 C 258.850 235.550,258.544 235.400,254.982 235.400 C 251.797 235.400,251.675 235.436,250.480 236.714 L 249.253 238.028 249.126 236.714 C 249.005 235.451,248.926 235.395,247.100 235.278 L 245.200 235.156 245.200 240.178 C 245.200 243.259,245.045 245.200,244.800 245.200 C 244.580 245.200,244.400 244.952,244.400 244.649 C 244.400 244.346,244.130 243.874,243.800 243.600 C 243.470 243.326,243.200 242.777,243.200 242.380 C 243.200 241.982,243.470 241.387,243.800 241.057 C 244.468 240.389,244.634 237.200,244.000 237.200 C 243.780 237.200,243.600 236.936,243.600 236.614 C 243.600 235.619,242.186 235.200,238.826 235.200 C 235.668 235.200,235.600 235.221,235.600 236.182 L 235.600 237.164 234.618 236.182 C 233.720 235.284,233.326 235.200,230.018 235.200 L 226.400 235.200 226.400 241.000 M231.508 239.125 C 231.595 239.386,231.382 239.600,231.033 239.600 C 230.685 239.600,230.400 239.315,230.400 238.967 C 230.400 238.260,231.261 238.383,231.508 239.125 M240.308 239.125 C 240.395 239.386,240.182 239.600,239.833 239.600 C 239.485 239.600,239.200 239.315,239.200 238.967 C 239.200 238.260,240.061 238.383,240.308 239.125 M256.200 238.950 C 256.200 238.977,256.425 239.403,256.700 239.895 C 257.737 241.749,256.472 243.758,254.419 243.519 C 252.801 243.330,252.578 239.691,254.125 238.717 C 254.488 238.488,256.200 238.680,256.200 238.950 M265.508 239.125 C 265.595 239.386,265.382 239.600,265.033 239.600 C 264.685 239.600,264.400 239.315,264.400 238.967 C 264.400 238.260,265.261 238.383,265.508 239.125 " stroke="none" fill="#193c58" fill-rule="evenodd"></path><path id="path2" d="" stroke="none" fill="#2468100" fill-rule="evenodd"></path><path id="path3" d="" stroke="none" fill="#2468100" fill-rule="evenodd"></path><path id="path4" d="" stroke="none" fill="#2468100" fill-rule="evenodd"></path></g></svg>